<?xml version="1.0" standalone="no"?>
<!DOCTYPE svg PUBLIC "-//W3C//DTD SVG 1.1//EN" "http://www.w3.org/Graphics/SVG/1.1/DTD/svg11.dtd" >
<svg>
<metadata>
Created by FontForge 20090914 at Fri Jan  7 12:32:55 2022
 By www-data
Roadway by Keith Bates     K-Type Freebie &#194;&#169; 2005, 2007
</metadata>
<defs>
<font id="Roadway" horiz-adv-x="354" >
  <font-face 
    font-family="Roadway"
    font-weight="400"
    font-stretch="normal"
    units-per-em="1000"
    panose-1="2 0 4 0 0 0 0 0 0 0"
    ascent="800"
    descent="-200"
    x-height="799"
    cap-height="800"
    bbox="-24 -167 1576.82 1063"
    underline-thickness="20"
    underline-position="-123"
    unicode-range="U+0020-U+F000"
  />
<missing-glyph horiz-adv-x="500" 
d="M63 0v800h375v-800h-375zM125 63h250v675h-250v-675z" />
    <glyph glyph-name=".notdef" horiz-adv-x="500" 
d="M63 0v800h375v-800h-375zM125 63h250v675h-250v-675z" />
    <glyph glyph-name="space" unicode=" " horiz-adv-x="234" 
 />
    <glyph glyph-name="exclam" unicode="!" horiz-adv-x="241" 
d="M60 800h126l-10 -319l-20 -301h-66l-20 301zM58 46c0 17.333 6.16699 32 18.5 44s26.833 18 43.5 18c17.333 0 32.166 -6 44.499 -18s18.5 -26.667 18.5 -44s-6.16699 -32 -18.5 -44s-27.166 -18 -44.499 -18c-16.667 0 -31.167 6 -43.5 18s-18.5 26.667 -18.5 44z" />
    <glyph glyph-name="quotedbl" unicode="&#x22;" horiz-adv-x="288" 
d="M61 653v186h61v-186h-61zM171 653v186h61v-186h-61z" />
    <glyph glyph-name="numbersign" unicode="#" horiz-adv-x="512" 
d="M350 254l-16 -72h-77l16 72h-110l-15 -72h-77l15 72h-72l16 77h73l33 157h-72l16 77h72l16 72h77l-16 -72h110l15 72h77l-15 -72h72l-16 -77h-73l-33 -157h72l-16 -77h-72zM323 488h-110l-34 -157h110z" />
    <glyph glyph-name="dollar" unicode="$" horiz-adv-x="404" 
d="M247 1v-80.001h-93v76c-40 8.66699 -71.333 30.334 -94 65.001s-34.667 76.667 -36 126h107c0 -26.667 6.33301 -48.667 19 -66s28.667 -26 48 -26c45.333 0 68 28 68 84c0 32 -5 59.667 -15 83c-14 32.667 -40.667 69 -80 109c-94 96 -141 184.667 -141 266
c0 92.667 41.333 147 124 163v78h93v-78c40 -8.66699 71 -30.334 93 -65.001c19.333 -29.333 30.333 -64.666 33 -105.999h-101c-4.66699 50.667 -28.334 76 -71.001 76c-46 0 -69 -23.333 -69 -70c0 -33.333 12 -67.333 36 -102c12.667 -19.333 34.667 -45 66 -77
c58 -60 97.333 -113 118 -159c15.333 -35.333 23 -77.333 23 -126c0 -38.667 -10.333 -73.334 -31 -104.001c-23.333 -33.333 -55.666 -55.666 -96.999 -66.999z" />
    <glyph glyph-name="percent" unicode="%" horiz-adv-x="456" 
d="M137 448c18 0 29.668 16.667 35.001 50l4 83c0.666992 4.66699 1 12.334 1 23.001c0 6 -0.333008 14.333 -1 25c-3.33301 50 -5.33301 76 -6 78c-4.66699 29.333 -16.334 44 -35.001 44s-30.667 -14.667 -36 -44l-4 -78c-0.666992 -10.667 -1 -19 -1 -25v-23
c4 -52.667 6 -80.334 6 -83.001c6 -33.333 18.333 -50 37 -50zM82.001 783c12.667 11.333 27.335 18.001 44.002 20.001c3.33301 0 6.33301 0.333008 9 1c2 -0.666992 5 -1 9 -1c20 -2.66699 35 -9.33398 45 -20.001c23.333 -29.333 36.666 -76.666 39.999 -141.999v-40
c0 -18 -0.333008 -32 -1 -42c-3.33301 -38.667 -6.66602 -65.334 -9.99902 -80.001c-6.66699 -29.333 -17.334 -51 -32.001 -65c-14.667 -11.333 -27.667 -17.666 -39 -18.999c-6 -0.666992 -10 -1 -12 -1s-6 0.333008 -12 1c-15.333 2 -29 9 -41 21
c-14 14 -24 34.333 -30 61c-2.66699 13.333 -5.33398 38.333 -8.00098 75c-1.33301 17.333 -2 33.666 -2 48.999c0 14.667 0.333008 28 1 40c2.66699 70.667 15.667 118 39 142zM318.002 46.001c18.667 0 30.333 16.668 35 50.001l4 83c0.666992 4.66699 1 12.334 1 23.001
c0 6 -0.333008 14.667 -1 26c-3.33301 49.333 -5 75 -5 77c-5.33301 30 -17 45 -35 45c-19.333 0 -31.333 -15 -36 -45l-5 -77c-0.666992 -11.333 -1 -20 -1 -26c0 -10.667 0.333008 -18.334 1 -23.001c3.33301 -52.667 5.33301 -80.334 6 -83.001c6 -33.333 18 -50 36 -50z
M264.001 381.002c12 11.333 26.6699 18.0029 44.0029 20.0029c2.66699 0.666992 5.66699 1 9 1c1.33301 0 4 -0.333008 8 -1c20 -2.66699 35 -9 45 -19c24 -30 37.333 -77.333 40 -142c0 -2.66699 0.333008 -16.334 1 -41.001c0 -18 -0.666992 -32 -2 -42
c-3.33301 -38.667 -6.66602 -65.334 -9.99902 -80.001c-6.66699 -28.667 -17.334 -50.334 -32.001 -65.001c-14.667 -11.333 -27.334 -17.333 -38.001 -18c-6.66699 -0.666992 -10.667 -1 -12 -1c-2 0 -6 0.333008 -12 1c-16 1.33301 -29.667 8 -41 20
c-14.667 14.667 -24.667 35 -30 61c-2.66699 13.333 -5.33398 38.666 -8.00098 75.999c-1.33301 16.667 -2.33301 32.667 -3 48c0 14.667 0.333008 28.334 1 41.001c3.33301 70 16.666 117 39.999 141z" />
    <glyph glyph-name="ampersand" unicode="&#x26;" horiz-adv-x="516" 
d="M503 0l-114.999 -0.000976562l-19 36c-32.667 -34 -83 -51.333 -151 -52c-58 0 -105 23.667 -141 71c-32.667 42.667 -49 95 -49 157c0 45.333 11 86 33 122c18 29.333 47 60 87 92c-8 13.333 -23 40 -45 80s-33 81.667 -33 125c0 50.667 12.667 91.667 38 123
c28 33.333 66.333 50 115 50c48 0 84.667 -16 110 -48c22.667 -29.333 34 -68.666 34 -117.999h-98c-2.66699 41.333 -18.334 62 -47.001 62c-33.333 0 -50 -23.667 -50 -71c0 -28.667 10.667 -61.667 32 -99l67 -116l103 -186c6 16 9 31 9 45v15h96v-20
c0 -51.333 -13.333 -102.333 -40 -153zM313.001 128.999l-115 205c-41.333 -34.667 -62 -70.667 -62 -108s9.16699 -68.333 27.5 -93s39.833 -37 64.5 -37c21.333 0 37 2 47 6s22.667 13 38 27z" />
    <glyph glyph-name="quotesingle" unicode="'" horiz-adv-x="165" 
d="M61 653v186h61v-186h-61z" />
    <glyph glyph-name="parenleft" unicode="(" horiz-adv-x="202" 
d="M183 -133c-45.333 122.667 -72.667 253 -82 391c-2 39.333 -3 86 -3 140c0 200.667 28.333 377.667 85 531h-85c-53.333 -158.667 -80 -335.667 -80 -531c0 -194.667 26.667 -371.667 80 -531h85z" />
    <glyph glyph-name="parenright" unicode=")" horiz-adv-x="202" 
d="M18 -133c46 122.667 73.333 253 82 391c2.66699 39.333 4 86 4 140c0 200.667 -28.667 377.667 -86 531h86c52.667 -158.667 79 -335.667 79 -531c0 -194.667 -26.333 -371.667 -79 -531h-86z" />
    <glyph glyph-name="asterisk" unicode="*" horiz-adv-x="500" 
d="M425 774l-103 -73l103 -74l-36 -78l-102 74v-147h-72v147l-102 -74l-36 78l103 73l-103 74l36 78l102 -74v148h72v-148l102 74z" />
    <glyph glyph-name="plus" unicode="+" horiz-adv-x="447" 
d="M177 230v135h-136v89h136v136h89v-136h135v-89h-135v-135h-89z" />
    <glyph glyph-name="comma" unicode="," horiz-adv-x="182" 
d="M38 40c0 14.667 4.99805 26.999 14.998 36.999s22.333 15 37 15c30.667 0 48.334 -17.333 53.001 -52c1.33301 -8 1.33301 -17.667 0 -29c-3.33301 -23.333 -13.666 -43.666 -30.999 -60.999s-39 -29.333 -65 -36v31c24 8.66699 38.333 23 43 43c-14.667 0 -27 5 -37 15
s-15 22.333 -15 37z" />
    <glyph glyph-name="hyphen" unicode="-" horiz-adv-x="234" 
d="M31 455h160v-91h-160v91z" />
    <glyph glyph-name="hyphen" unicode="&#x2010;" horiz-adv-x="234" 
d="M31 455h160v-91h-160v91z" />
    <glyph glyph-name="period" unicode="." horiz-adv-x="182" 
d="M42 40c0 14.667 5 27 15 37s22.333 15 37 15s27 -5 37 -15s15 -22.333 15 -37s-5 -27 -15 -37s-22.333 -15 -37 -15s-27 5 -37 15s-15 22.333 -15 37z" />
    <glyph glyph-name="slash" unicode="/" horiz-adv-x="325" 
d="M9 -137l224 1063h81l-224 -1063h-81z" />
    <glyph glyph-name="zero" unicode="0" horiz-adv-x="454" 
d="M235 99c26.667 0 46 16.333 58 49c9.33301 24 15 60 17 108l4 108c0.666992 9.33301 1 24.666 1 45.999c0 12 -0.666992 29 -2 51l-4 102c-3.33301 43.333 -9.66602 76 -18.999 98c-12.667 29.333 -32 44 -58 44c-26.667 0 -46.334 -14.667 -59.001 -44
c-9.33301 -22 -15.333 -54.667 -18 -98l-4 -102c-1.33301 -22 -2 -39 -2 -51c0 -21.333 0.333008 -36.666 1 -45.999l6 -108c3.33301 -47.333 10 -83.333 20 -108c13.333 -32.667 33 -49 59 -49zM127 768c24 23.333 53.002 36.667 87.002 40c6.66699 0.666992 12.667 1 18 1
c4 0 10 -0.333008 18 -1c39.333 -5.33301 69 -18.333 89 -39c30 -37.333 50.667 -80 62 -128c8.66699 -34.667 14.667 -86.667 18 -156c0 -4.66699 0.333008 -31.667 1 -81c0.666992 -35.333 0 -63.333 -2 -84c-6.66699 -76.667 -13.667 -130 -21 -160
c-12.667 -58 -34 -101.333 -64 -130c-28.667 -22.667 -54.334 -35 -77.001 -37c-12 -1.33301 -20 -1.66602 -24 -0.999023c-4 -0.666992 -12 -0.333984 -24 0.999023c-30.667 3.33301 -58 17 -82 41c-28.667 28.667 -48.667 69.334 -60 122.001
c-5.33301 26.667 -10.666 77 -15.999 151c-2.66699 34 -4 66.333 -4 97c-0.666992 29.333 -0.333984 56.333 0.999023 81c3.33301 69.333 9.66602 123.333 18.999 162c12 51.333 32.333 91.666 61 120.999z" />
    <glyph glyph-name="one" unicode="1" horiz-adv-x="315" 
d="M46 744c44.667 5.33301 75.333 24 92 56h77v-799h-107v688h-62v55z" />
    <glyph glyph-name="two" unicode="2" horiz-adv-x="442" 
d="M202 237c-27.333 -48 -43.001 -95.666 -47.001 -142.999h240v-94h-359v45c0 65.333 12.333 125 37 179c16.667 38 45.334 83.333 86.001 136c52.667 68.667 86.667 115.334 102 140.001c27.333 43.333 41 83.666 41 120.999c0 24 -6.16699 43.667 -18.5 59
s-28.5 23 -48.5 23c-27.333 0 -47.333 -11.667 -60 -35c-10 -18.667 -14.667 -41.334 -14 -68.001h-103c0 57.333 13.667 105.333 41 144c32 44 77.333 66.333 136 67c54 0.666992 97 -17.333 129 -54c29.333 -34.667 44 -78.334 44 -131.001
c0 -48 -12.333 -95.667 -37 -143c-16 -30 -44 -71.167 -84 -123.5s-68.333 -93.166 -85 -122.499z" />
    <glyph glyph-name="three" unicode="3" horiz-adv-x="444" 
d="M150 630c6.66699 50.667 31.999 76 75.999 76c44.667 0 67 -35.333 67 -106c0 -46.667 -8.66699 -79 -26 -97s-46.333 -27 -87 -27v-93c76 0 115 -42.333 117 -127v-40c-0.666992 -40 -6 -69 -16 -87c-12 -21.333 -33 -32 -63 -32c-39.333 0 -63 30.333 -71 91h-103
c2.66699 -55.333 17.667 -100.333 45 -135c31.333 -39.333 74.333 -59 129 -59c70.667 0 120.334 23 149.001 69c15.333 25.333 26 67 32 125c2.66699 23.333 2.66699 54 0 92c-6 86 -30.333 138.333 -73 157c29.333 15.333 48.333 37.333 57 66c6 20 9.33301 57.667 10 113
c0 126 -58 189 -174 189c-54.667 0 -97.334 -19.667 -128.001 -59c-25.333 -31.333 -39.666 -70 -42.999 -116h102z" />
    <glyph glyph-name="four" unicode="4" horiz-adv-x="454" 
d="M267 321v275l-129 -275h129zM370 -1h-103v229h-232v91l224 481h111v-479h53v-93h-53v-229z" />
    <glyph glyph-name="five" unicode="5" horiz-adv-x="431" 
d="M162 -8c-42 0 -80.001 11.333 -114.001 34l46 88c26 -14 49.667 -21 71 -21c44.667 0 77.334 27.333 98.001 82c14 38.667 20.667 85 20 139c0 80 -27 120 -81 120c-27.333 0 -48.333 -10.333 -63 -31l-93 17l14 380h284v-93h-180l-11 -199
c18.667 13.333 41.667 20 69 20c51.333 0 92 -19 122 -57s45 -87.667 45 -149c0 -90.667 -14.667 -164 -44 -220c-38.667 -73.333 -99.667 -110 -183 -110z" />
    <glyph glyph-name="six" unicode="6" horiz-adv-x="444" 
d="M222 -7c-58.667 0 -104.667 21.333 -138 64c-30 39.333 -45 88.333 -45 147v117c0 99.333 26 196 78 290s117.333 161.667 196 203l50 -73c-110.667 -71.333 -178.667 -165.333 -204 -282c19.333 12.667 40.333 19 63 19c120.667 0 181 -72.333 181 -217v-57
c0 -58.667 -15.333 -107.667 -46 -147c-33.333 -42.667 -78.333 -64 -135 -64zM297 251c0 88.667 -25 133 -75 133s-75 -44.333 -75 -133v-32c0.666992 -81.333 25.667 -122 75 -122c50 0 75 39.333 75 118v36z" />
    <glyph glyph-name="seven" unicode="7" horiz-adv-x="418" 
d="M117 0c0 160.667 19.667 310.999 59 450.999c31.333 110.667 68.666 196 111.999 256h-260v93h359v-100c-107.333 -149.333 -160.666 -382.666 -159.999 -699.999h-110z" />
    <glyph glyph-name="eight" unicode="8" horiz-adv-x="455" 
d="M225 -9c-76 0 -129 23.666 -159 70.999c-22.667 36.667 -34 95.667 -34 177c0 118 27 189.333 81 214c-22.667 11.333 -37.667 35 -45 71c-4 19.333 -6 49.333 -6 90c0 62.667 11.333 109.334 34 140.001c26 35.333 69.333 53 130 53c110 0 165 -64 165 -192
c0 -40.667 -2 -71 -6 -91c-8 -36 -24 -60 -48 -72c55.333 -28 83 -101.333 83 -220c0 -80 -12 -138 -36 -174c-30 -44.667 -83 -67 -159 -67zM226 706.999c-45.333 0 -68 -35.667 -68 -107c0 -76 22.667 -114 68 -114c43.333 0 65 39.667 65 119c0 68 -21.667 102 -65 102z
M226 379.999c-59.333 0 -89 -49.333 -89 -148c0 -92.667 29.667 -139 89 -139s89 46.333 89 139c0 98.667 -29.667 148 -89 148z" />
    <glyph glyph-name="nine" unicode="9" horiz-adv-x="444" 
d="M129 -14l-49.999 73c110.667 71.333 178.667 165.333 204 282c-19.333 -12.667 -40.333 -19 -63 -19c-120.667 0 -181 72.333 -181 217v57c0 58.667 15.333 107.667 46 147c33.333 42.667 78.333 64 135 64c63.333 0 110.666 -21.333 141.999 -64
c27.333 -36.667 41 -85.667 41 -147v-117c0 -99.333 -26 -196 -78 -290s-117.333 -161.667 -196 -203zM295.001 581c-0.666992 81.333 -25.667 122 -75 122c-50 0 -75 -39.333 -75 -118v-36c0 -88.667 25 -133 75 -133s75 44.333 75 133v32z" />
    <glyph glyph-name="colon" unicode=":" horiz-adv-x="209" 
d="M50 230c0 14.667 5 27 15 37s22.333 15 37 15s27 -5 37 -15s15 -22.333 15 -37s-5 -27 -15 -37s-22.333 -15 -37 -15s-27 5 -37 15s-15 22.333 -15 37zM50 590c0 14.667 5 27 15 37s22.333 15 37 15s27 -5 37 -15s15 -22.333 15 -37s-5 -27 -15 -37s-22.333 -15 -37 -15
s-27 5 -37 15s-15 22.333 -15 37z" />
    <glyph glyph-name="semicolon" unicode=";" horiz-adv-x="226" 
d="M50 230c0 14.667 4.99805 26.999 14.998 36.999s22.333 15 37 15c30.667 0 48.334 -17.333 53.001 -52c1.33301 -8 1.33301 -17.667 0 -29c-3.33301 -23.333 -13.666 -43.666 -30.999 -60.999s-39 -29.333 -65 -36v31c24 8.66699 38.333 23 43 43c-14.667 0 -27 5 -37 15
s-15 22.333 -15 37zM49.998 589.999c0 14.667 5 27 15 37s22.333 15 37 15s27 -5 37 -15s15 -22.333 15 -37s-5 -27 -15 -37s-22.333 -15 -37 -15s-27 5 -37 15s-15 22.333 -15 37z" />
    <glyph glyph-name="less" unicode="&#x3c;" horiz-adv-x="115" 
d="M21 430c0 10 3.50098 18.5 10.501 25.5s15.5 10.5 25.5 10.5c21.333 0 33.666 -12 36.999 -36c0.666992 -6 0.666992 -13 0 -21c-2.66699 -16 -10 -30.167 -22 -42.5s-27 -20.833 -45 -25.5v22c16.667 6 26.667 16 30 30c-10 0 -18.5 3.66699 -25.5 11s-10.5 16 -10.5 26
z" />
    <glyph glyph-name="equal" unicode="=" horiz-adv-x="444" 
d="M51 364h340v-89h-340v89zM51 544h340v-89h-340v89z" />
    <glyph glyph-name="greater" unicode="&#x3e;" horiz-adv-x="113" 
d="M21 430c0 10 3.5 18.5 10.5 25.5s15.5 10.5 25.5 10.5s18.667 -3.5 26 -10.5s11 -15.5 11 -25.5s-3.66699 -18.5 -11 -25.5s-16 -10.5 -26 -10.5s-18.5 3.5 -25.5 10.5s-10.5 15.5 -10.5 25.5z" />
    <glyph glyph-name="question" unicode="?" horiz-adv-x="442" 
d="M116 171c0 56 4.00098 99.834 12.001 131.501s22 59.834 42 84.501c44 55.333 74.333 96.333 91 123c27.333 43.333 41 80.333 41 111c0 24 -6.16699 43.667 -18.5 59s-28.5 23 -48.5 23c-27.333 0 -47.333 -11.667 -60 -35c-10 -18.667 -14.667 -41.334 -14 -68.001
h-103c0 57.333 13.667 105.333 41 144c32 44 77.333 66.333 136 67c54 0.666992 97 -17.333 129 -54c29.333 -34.667 44 -78.334 44 -131.001c0 -47.333 -12.333 -93.333 -37 -138c-12.667 -22.667 -40.334 -62 -83.001 -118c-30.667 -40 -49.5 -70.167 -56.5 -90.5
s-10.5 -56.5 -10.5 -108.5h-105zM108.001 46.001c0 17.333 6.16699 32 18.5 44s26.833 18 43.5 18c17.333 0 32.166 -6 44.499 -18s18.5 -26.667 18.5 -44s-6.16699 -32 -18.5 -44s-27.166 -18 -44.499 -18c-16.667 0 -31.167 6 -43.5 18s-18.5 26.667 -18.5 44z" />
    <glyph glyph-name="at" unicode="@" horiz-adv-x="554" 
d="M46 712c0 62 21.833 114.832 65.5 158.499s96.5 65.5 158.5 65.5s114.833 -21.833 158.5 -65.5s65.5 -96.5 65.5 -158.5c0 -81.333 -34.333 -144.333 -103 -189l38 -123h-70l-29 96c-19.333 -5.33301 -39.333 -8 -60 -8c-21.333 0 -42.333 3 -63 9l-29 -97h-69l39 124
c-68 44.667 -102 107.334 -102 188.001zM226 559.999c14.667 -4 29.333 -6 44 -6c14 0 27.667 2 41 6l-42 134zM111.999 711.999c0 -48.667 18.667 -89 56 -121l65 209h73l64 -210c38.667 32 58 72.667 58 122c0 43.333 -15.5 80.5 -46.5 111.5s-68.167 46.5 -111.5 46.5
s-80.5 -15.5 -111.5 -46.5s-46.5 -68.167 -46.5 -111.5z" />
    <glyph glyph-name="A" unicode="A" horiz-adv-x="454" 
d="M229 514l-32 -185h67zM273 800l166 -800h-105l-48 219h-114l-51 -219h-106l170 800h88z" />
    <glyph glyph-name="B" unicode="B" horiz-adv-x="423" 
d="M222 800c58.667 0 100.666 -16.999 125.999 -50.999c22 -30 33 -77.667 33 -143c0 -93.333 -19.333 -151.333 -58 -174c46.667 -26.667 70 -98.334 70 -215.001c0.666992 -39.333 -3.66602 -75.833 -12.999 -109.5s-21 -57.5 -35 -71.5c-24 -24 -67.333 -36 -130 -36
h-175v800h182zM142.999 476.001h81c36 0 54 38 54 114c0 34 -2 58.333 -6 73c-7.33301 29.333 -23.333 44 -48 44h-81v-231zM142.999 93.001h84c29.333 0 47.333 17 54 51c2 10 3 38.667 3 86c0 102 -18 153 -54 153h-87v-290z" />
    <glyph glyph-name="C" unicode="C" horiz-adv-x="424" 
d="M296 630c-2 7.33301 -5.66797 19 -11.001 35c-12 28.667 -31.333 43 -58 43c-34 0 -56 -14 -66 -42c-12.667 -34.667 -22.667 -106 -30 -214l-2 -42c0 -20 0.333008 -35.333 1 -46c8.66699 -119.333 21.334 -197.666 38.001 -234.999c11.333 -22.667 31.333 -34 60 -34
c32 0 52.667 10.667 62 32c7.33301 18 12.333 38.333 15 61h109c-5.33301 -44 -14.333 -79.667 -27 -107c-27.333 -58 -80 -87 -158 -87c-76.667 0 -130.334 29.333 -161.001 88c-14 29.333 -27.333 108.666 -40 237.999c-2 35.333 -3 63.333 -3 84
c0.666992 30 1.33398 53.667 2.00098 71c5.33301 124 18.333 206.333 39 247c30 56 84 84 162 84c76 0 127.667 -29.667 155 -89c11.333 -29.333 19.333 -58.333 24 -87h-111z" />
    <glyph glyph-name="D" unicode="D" horiz-adv-x="426" 
d="M143 707l-0.000976562 -613.999h37c22.667 0 38.5 1.66699 47.5 5s18.167 12.333 27.5 27c10 22.667 17.667 52.667 23 90c0.666992 3.33301 4 40.666 10 111.999c2 15.333 3 40.666 3 75.999c0 28.667 -0.666992 51.334 -2 68.001
c-5.33301 83.333 -15.666 148 -30.999 194c-9.33301 28 -35.333 42 -78 42h-37zM39.999 0.000976562l0.000976562 800.002h155c82 0 136 -28 162 -84c9.33301 -24.667 17.666 -60.334 24.999 -107.001s11.333 -89.334 12 -128.001c1.33301 -28.667 2 -53.667 2 -75
c0 -16.667 -0.666992 -44 -2 -82c-6 -118 -19 -198.667 -39 -242c-27.333 -54.667 -82 -82 -164 -82h-151z" />
    <glyph glyph-name="E" unicode="E" horiz-adv-x="377" 
d="M40 800h307v-93h-204v-231h118v-93h-118v-290h214v-93h-317v800z" />
    <glyph glyph-name="F" unicode="F" horiz-adv-x="362" 
d="M40 0v800h307v-93h-204v-231h118v-93h-118v-383h-103z" />
    <glyph glyph-name="G" unicode="G" horiz-adv-x="444" 
d="M308 282l-66.999 0.00292969v93h168v-202c0 -34 -5.66699 -64 -17 -90c-26.667 -59.333 -79 -89 -157 -89c-81.333 0 -135.333 29.667 -162 89c-14.667 33.333 -28 113.666 -40 240.999c-2 18 -3 43 -3 75c0 24.667 0.666992 50 2 76
c7.33301 122 19.666 202.667 36.999 242c30 59.333 85.333 89 166 89c75.333 0 125.666 -29.667 150.999 -89c13.333 -32 21 -64.333 23 -97h-109c-0.666992 13.333 -5 30.666 -13 51.999c-11.333 23.333 -29.666 35 -54.999 35c-33.333 0 -54.666 -11.667 -63.999 -35
c-12.667 -33.333 -23.334 -107 -32.001 -221c-1.33301 -28 -2 -43 -2 -45c0 -18 0.333008 -32.333 1 -43c9.33301 -117.333 22 -195.333 38 -234c13.333 -22.667 33.333 -34 60 -34c30.667 0 51.667 11.667 63 35c7.33301 17.333 11 38.666 11 63.999z" />
    <glyph glyph-name="H" unicode="H" horiz-adv-x="427" 
d="M284 383h-141v-383h-103v800h103v-324h141v324h103v-800h-103v383z" />
    <glyph glyph-name="I" unicode="I" horiz-adv-x="207" 
d="M50 800h107v-800h-107v800z" />
    <glyph glyph-name="J" unicode="J" horiz-adv-x="410" 
d="M370 800l0.000976562 -588c0 -59.333 -13.667 -108 -41 -146c-32.667 -47.333 -82.667 -71 -150 -71c-46.667 0 -84.334 12 -113.001 36c-17.333 14.667 -34.333 37.667 -51 69l86 46c18 -33.333 44.333 -50 79 -50c57.333 0 86 49 86 147v557h104z" />
    <glyph glyph-name="K" unicode="K" horiz-adv-x="422" 
d="M192 359l-51 -118v-241h-101v801h103v-319l141 319h112l-136 -308l142 -493h-109z" />
    <glyph glyph-name="L" unicode="L" horiz-adv-x="388" 
d="M40 800h103v-708h230v-92h-333v800z" />
    <glyph glyph-name="M" unicode="M" horiz-adv-x="474" 
d="M331 481l-93 -294l-94 294v-483l-104 2v800h107l90 -268l89 268h108v-800h-103v481z" />
    <glyph glyph-name="N" unicode="N" horiz-adv-x="432" 
d="M143 474v-474h-103v798h103l146 -451v451h103v-798h-103z" />
    <glyph glyph-name="O" unicode="O" horiz-adv-x="454" 
d="M226 93c28 -0.666992 46.998 9.66699 56.998 31c20 44 31.667 124 35 240v46c0 22.667 -0.333008 39.667 -1 51c-6 104.667 -17 174.667 -33 210c-11.333 23.333 -30.666 35 -57.999 35s-46.666 -11.333 -57.999 -34c-16 -38.667 -27 -109 -33 -211
c-0.666992 -12 -1 -29.667 -1 -53c0 -18 0.333008 -32.667 1 -44c2 -114.667 14 -194.667 36 -240c10.667 -20.667 29 -31 55 -31zM225.998 805.001c79.333 0 132.001 -29.334 158.001 -88.001c26.667 -63.333 40 -174 40 -332c0 -25.333 -0.666992 -47 -2 -65
c-6.66699 -79.333 -10 -119.333 -10 -120c-6.66699 -51.333 -16.334 -90.666 -29.001 -117.999c-30.667 -58.667 -83 -88 -157 -88c-75.333 0 -127 29.667 -155 89c-16.667 33.333 -29 108 -37 224c-2.66699 40 -4 75.667 -4 107c0 138.667 13 239.667 39 303
c12 26.667 31.833 48 59.5 64s60.167 24 97.5 24z" />
    <glyph glyph-name="P" unicode="P" horiz-adv-x="431" 
d="M40 0v800h182c37.333 0 71 -9 101 -27c52 -37.333 78 -101.333 78 -192c0 -44 -9 -85 -27 -123c-16 -32.667 -33 -53.667 -51 -63c-28.667 -14.667 -59.667 -22 -93 -22h-87v-373h-103zM143 466h71c50.667 0 76 40 76 120c0 80.667 -25.333 121 -76 121h-71v-241z" />
    <glyph glyph-name="Q" unicode="Q" horiz-adv-x="454" 
d="M352 40l31.999 -61.999l-76 -41l-30 62c-14.667 -4 -32 -6 -52 -6c-73.333 0 -125.333 30 -156 90c-16 36 -28 110.667 -36 224c-2.66699 40 -4 75.667 -4 107c0 139.333 13.333 240.333 40 303c28 58.667 80 88 156 88c52.667 0.666992 93.334 -13 122.001 -41
c10.667 -10 18 -17.667 22 -23s8.33301 -13.333 13 -24c18.667 -44.667 31 -99.334 37 -164.001c2.66699 -35.333 4 -91.333 4 -168c0 -192.667 -24 -307.667 -72 -345zM199.999 151.001l74.999 41l20 -39c16 74 24 159.667 24 257c0 10.667 -0.666992 27.667 -2 51
c-2 40 -4.66699 72.333 -8 97c-6 48.667 -14.333 86.667 -25 114c-8.66699 22.667 -28 34 -58 34c-27.333 0 -46.666 -11.333 -57.999 -34c-16 -42 -27 -112.333 -33 -211c-1.33301 -23.333 -2 -42.333 -2 -57c0 7.33301 0.666992 -9.66699 2 -51
c5.33301 -102.667 15.333 -175 30 -217c4 -13.333 12.333 -24.333 25 -33s26 -12 40 -10z" />
    <glyph glyph-name="R" unicode="R" horiz-adv-x="428" 
d="M143 466h65c50.667 0 76 40 76 120c0 80.667 -25.333 121 -76 121h-65v-241zM304 395l93.999 -397h-104l-89 375h-62l1 -373h-104v800h176c37.333 0 71 -9 101 -27c52 -37.333 78 -101.333 78 -192c0 -43.333 -9 -82.333 -27 -117c-14 -28 -31 -48 -51 -60
c-3.33301 -2.66699 -7.66602 -5.66699 -12.999 -9z" />
    <glyph glyph-name="S" unicode="S" horiz-adv-x="411" 
d="M138 636c0 46.667 22.998 70 68.998 70c42.667 0 66.334 -25.333 71.001 -76h101c-3.33301 49.333 -17.666 89.333 -42.999 120c-30 37.333 -72 56 -126 56c-60.667 0 -106 -17 -136 -51c-25.333 -29.333 -38 -68.333 -38 -117c0 -83.333 47 -172 141 -266
c32 -33.333 55 -62.333 69 -87c17.333 -32 26 -67 26 -105c0 -56 -22.667 -84 -68 -84c-19.333 0 -35.333 8.66699 -48 26s-19 39.333 -19 66h-107c1.33301 -56.667 16.333 -102.667 45 -138c29.333 -37.333 69 -56 119 -56c60.667 0 108 18.667 142 56
c30 33.333 45 74 45 122c0 48.667 -7.66699 90.667 -23 126c-20.667 46 -60 99 -118 159c-31.333 32 -53.333 57.667 -66 77c-24 34.667 -36 68.667 -36 102z" />
    <glyph glyph-name="T" unicode="T" horiz-adv-x="378" 
d="M248 0h-107v707h-121v93h338v-93h-110v-707z" />
    <glyph glyph-name="U" unicode="U" horiz-adv-x="426" 
d="M216 -7c-64.667 0 -113 25 -145 75c-20.667 32 -31 91.667 -31 179v553h103v-606c0 -65.333 24.333 -98.333 73 -99c44.667 0 67 33 67 99v606h103v-550c0 -88.667 -10.667 -149 -32 -181c-21.333 -29.333 -42 -49.333 -62 -60s-45.333 -16 -76 -16z" />
    <glyph glyph-name="V" unicode="V" horiz-adv-x="419" 
d="M155 0l-140 800h104l91 -521l89 521h105l-142 -800h-107z" />
    <glyph glyph-name="W" unicode="W" horiz-adv-x="545" 
d="M221 800h103l51 -406l51 406h104l-102 -800h-104l-50 400l-49 -400h-107l-103 800h104l51 -405z" />
    <glyph glyph-name="X" unicode="X" horiz-adv-x="407" 
d="M395 800l-137 -392l139 -408h-108l-84 262l-87 -262h-108l141 410l-135 390h109l79 -246l83 246h108z" />
    <glyph glyph-name="Y" unicode="Y" horiz-adv-x="463" 
d="M284 0h-106v353l-163 447h110l105 -301l107 301h111l-164 -445v-355z" />
    <glyph glyph-name="Z" unicode="Z" horiz-adv-x="360" 
d="M30 96l192 610h-192v94h298v-96l-191 -611h193v-93h-300v96z" />
    <glyph glyph-name="bracketleft" unicode="[" horiz-adv-x="199" 
d="M193 -46h-77v889h77v86h-151v-1062h151v87z" />
    <glyph glyph-name="backslash" unicode="\" horiz-adv-x="325" 
d="M314 -137l-224 1063h-81l224 -1063h81z" />
    <glyph glyph-name="bracketright" unicode="]" horiz-adv-x="199" 
d="M14 -46h77v889h-77v86h151v-1062h-151v87z" />
    <glyph glyph-name="underscore" unicode="_" horiz-adv-x="234" 
d="M31 639h160v-71h-160v71z" />
    <glyph glyph-name="grave" unicode="`" horiz-adv-x="482" 
d="M255 858h83l-113 123l-102 -1z" />
    <glyph glyph-name="a" unicode="a" 
d="M267 400l-28 94h-125l-28 -94h-69l124 400h73l123 -400h-70zM177 694l-45 -140h88z" />
    <glyph glyph-name="b" unicode="b" horiz-adv-x="331" 
d="M183 800c38 0 66.001 -9.66797 84.001 -29.001c20 -22 30 -47 30 -75c0 -15.333 -4.66699 -30.5 -14 -45.5s-20.333 -25.167 -33 -30.5c14.667 -4.66699 27.667 -15 39 -31c12.667 -19.333 19 -41.666 19 -66.999c0.666992 -38.667 -10.333 -68.667 -33 -90
s-53.334 -32 -92.001 -32h-145v400h145zM105.001 637.999h78c10 0 19.667 4.83301 29 14.5s14 22.5 14 38.5s-4.66699 28.333 -14 37s-19 13 -29 13h-78v-103zM105.001 459.999h78c13.333 0 25.5 5.16699 36.5 15.5s16.5 24.833 16.5 43.5
c0 17.333 -5.66699 31.833 -17 43.5s-23.333 17.5 -36 17.5h-78v-120z" />
    <glyph glyph-name="c" unicode="c" horiz-adv-x="317" 
d="M228 702c-11.333 24 -29.6689 36.002 -55.002 36.002c-34 0 -57.333 -19 -70 -57c-7.33301 -23.333 -11 -50.333 -11 -81c0 -62.667 15.333 -105.334 46 -128.001c10 -7.33301 22 -11 36 -11c26.667 0 46.334 17.667 59.001 53l64 -22
c-21.333 -64.667 -62.666 -97 -123.999 -97c-46 0 -83 18.833 -111 56.5s-42 87.167 -42 148.5c0 63.333 13.333 113.166 40 149.499s64.334 54.5 113.001 54.5c53.333 0 91.666 -26.667 114.999 -80z" />
    <glyph glyph-name="d" unicode="d" horiz-adv-x="339" 
d="M99 741v-280h42c34.667 0 61 15 79 45c14.667 25.333 22 57 22 95c0 93.333 -33.667 140 -101 140h-42zM32 400v399.999h120c53.333 0 94.333 -20 123 -60c26 -35.333 39 -81.333 39 -138c0 -59.333 -13 -106.666 -39 -141.999c-28 -40 -70 -60 -126 -60h-117z" />
    <glyph glyph-name="e" unicode="e" horiz-adv-x="276" 
d="M24 800h231v-59h-164v-103h119v-59h-119v-120h174v-59h-241v400z" />
    <glyph glyph-name="f" unicode="f" horiz-adv-x="282" 
d="M101 638h102v-60h-102v-179h-67v400h236v-59h-169v-102z" />
    <glyph glyph-name="g" unicode="g" horiz-adv-x="328" 
d="M174 395c-50 0 -88.668 22.333 -116.001 67c-23.333 38 -35 83.667 -35 137c0 136 50.333 204 151 204c55.333 0 92.333 -26.333 111 -79l-61 -22c-13.333 25.333 -30 38 -50 38c-52 0 -78 -47 -78 -141c0 -35.333 5.66699 -67 17 -95c4.66699 -12 13 -23.167 25 -33.5
s24.333 -15.5 37 -15.5c38.667 0.666992 59.334 25.667 62.001 75h-63v60h129v-51c0 -42.667 -12 -79 -36 -109c-18.667 -23.333 -49.667 -35 -93 -35z" />
    <glyph glyph-name="h" unicode="h" horiz-adv-x="322" 
d="M222 579h-124v-179h-67v400h67v-162h124v162h67v-400h-67v179z" />
    <glyph glyph-name="i" unicode="i" horiz-adv-x="149" 
d="M40 800h72v-401h-72v401z" />
    <glyph glyph-name="j" unicode="j" horiz-adv-x="285" 
d="M253 799v-264.999c0 -92.667 -42.667 -139.334 -128 -140.001c-46.667 0 -84 19 -112 57l56 37c14 -18.667 32.667 -27.667 56 -27c40.667 0 61 29 61 87v251h67z" />
    <glyph glyph-name="k" unicode="k" horiz-adv-x="302" 
d="M125 569l-31 -47v-122h-66v400h67v-163l109 163h80l-115 -172l122 -228h-76z" />
    <glyph glyph-name="l" unicode="l" horiz-adv-x="270" 
d="M35 800h67v-342h156v-59h-223v401z" />
    <glyph glyph-name="m" unicode="m" horiz-adv-x="382" 
d="M281 630l-89 -234l-89 235l-1 -231h-66v400h70l86 -222l85 222h71v-400h-67v230z" />
    <glyph glyph-name="n" unicode="n" horiz-adv-x="334" 
d="M101 669v-269h-68v400h78l123 -264v264h67v-400h-75z" />
    <glyph glyph-name="o" unicode="o" horiz-adv-x="343" 
d="M171 396c-100.667 0 -151 68 -151 204c0 135.333 50.333 203 151 203c100 0 150 -67.667 150 -203c0 -136 -50 -204 -150 -204zM171 743c-55.333 0 -83 -47.667 -83 -143s27.667 -143 83 -143c54.667 0 82 47.667 82 143s-27.333 143 -82 143z" />
    <glyph glyph-name="p" unicode="p" horiz-adv-x="322" 
d="M100 741v-114h83c32 0 48 18.333 48 55c0 39.333 -16 59 -48 59h-83zM100 568v-168h-67v400h151c36 0 64.333 -11.333 85 -34s31 -50 31 -82c0 -33.333 -10.667 -61 -32 -83s-51.333 -33 -90 -33h-78z" />
    <glyph glyph-name="q" unicode="q" horiz-adv-x="349" 
d="M272 431l26 -42.001l-56 -32l-27 44c-12 -2.66699 -25.333 -4 -40 -4c-100.667 0 -151 67.667 -151 203s50.333 203 151 203c100 0 150 -67.667 150 -203c0 -81.333 -17.667 -137.666 -53 -168.999zM175 743.999c-55.333 0 -83 -48.001 -83 -144.001
c0 -96.667 27.667 -144 83 -142h6l-23 37l56 32l21 -34c14.667 24.667 22 60.334 22 107.001c0 96 -27.333 144 -82 144z" />
    <glyph glyph-name="r" unicode="r" horiz-adv-x="319" 
d="M160 568h-61v-168h-67v400h152c36 0 64.167 -10.5 84.5 -31.5s30.5 -49.167 30.5 -84.5c0.666992 -28 -5.33301 -51.833 -18 -71.5s-28.667 -32.167 -48 -37.5l67 -175h-76zM99 741v-114h85c30.667 0 46 18.333 46 55c0 39.333 -15.333 59 -46 59h-85z" />
    <glyph glyph-name="s" unicode="s" horiz-adv-x="305" 
d="M150 396c-24.667 0 -49.668 8.33301 -75.001 25c-28.667 18.667 -46.334 43 -53.001 73l62 20c3.33301 -12 11.833 -23.667 25.5 -35s29.834 -17 48.501 -17c42 0 63 14.333 63 43c0 26.667 -15.333 47.334 -46 62.001c-25.333 9.33301 -61 25.666 -107 48.999
c-32 20.667 -48 50.667 -48 90c0 31.333 11.333 55.333 34 72s55 25 97 25c64.667 0 106.334 -26.333 125.001 -79l-59 -20c-5.33301 13.333 -14.833 23.5 -28.5 30.5s-26.834 10.5 -39.501 10.5c-43.333 0 -64.666 -13.333 -63.999 -40c0 -18.667 12 -34 36 -46
c6.66699 -3.33301 40.334 -18.333 101.001 -45c44 -18.667 66 -56 66 -112c0 -30 -12.833 -55.167 -38.5 -75.5s-58.834 -30.5 -99.501 -30.5z" />
    <glyph glyph-name="t" unicode="t" horiz-adv-x="296" 
d="M184 400h-70v341h-98v59h265v-59h-97v-341z" />
    <glyph glyph-name="u" unicode="u" horiz-adv-x="311" 
d="M159 399c-45.333 0 -79.667 15.667 -103 47c-21.333 28.667 -32 66 -32 112v242h68v-256c0 -57.333 22.333 -86 67 -86c40.667 0 61 28.667 61 86v256h68v-241c0 -106.667 -43 -160 -129 -160z" />
    <glyph glyph-name="v" unicode="v" horiz-adv-x="330" 
d="M132 399l-118 401h71l81 -276l80 276h70l-116 -401h-68z" />
    <glyph glyph-name="w" unicode="w" horiz-adv-x="436" 
d="M350 400h-65l-65 243l-66 -243h-66l-73 400h69l43 -236l60 236h65l59 -235l43 235h68z" />
    <glyph glyph-name="x" unicode="x" horiz-adv-x="309" 
d="M191 606l105 -206h-74l-68 133l-68 -133h-74l105 206l-99 194h75l61 -120l61 120h76z" />
    <glyph glyph-name="y" unicode="y" horiz-adv-x="332" 
d="M200 566v-166h-67v167l-119 233h71l82 -159l81 159h71z" />
    <glyph glyph-name="z" unicode="z" horiz-adv-x="286" 
d="M22 460l168 279h-168v60h244v-65l-169 -277h170v-59h-245v62z" />
    <glyph glyph-name="braceleft" unicode="{" horiz-adv-x="269" 
d="M181 -134c-70.667 0 -106.001 62.3301 -106.001 186.997v110c0 56.667 -4.33301 98.334 -13 125.001c-14 44.667 -42 67.667 -84 69v89c42 2.66699 70 25.667 84 69c8.66699 27.333 13 69 13 125v105c0 124.667 35.333 187 106 187h70v-78h-18
c-28 0 -46.667 -9.66699 -56 -29c-6.66699 -13.333 -10.667 -36.666 -12 -69.999l-3 -134c-1.33301 -46 -6.66602 -82.333 -15.999 -109c-10.667 -30.667 -30.667 -61 -60 -91h5v-39h-5c50 -49.333 75 -113.666 75 -192.999c0 -114.667 4.16699 -184.167 12.5 -208.5
s27.833 -36.5 58.5 -36.5h19v-78h-70z" />
    <glyph glyph-name="bar" unicode="|" horiz-adv-x="108" 
d="M18 928h50v-1068h-50v1068z" />
    <glyph glyph-name="braceright" unicode="}" horiz-adv-x="268" 
d="M161 52c0 -125.333 -34.667 -188 -104 -188h-73v78h20c26.667 0 45 9.83301 55 29.5s15 90.5 15 212.5c0 74.667 26 139 78 193h-5v40h5c-52 54.667 -78 119.334 -78 194.001c0 111.333 -4.16699 179.166 -12.5 203.499s-27.5 36.5 -57.5 36.5h-20v78h73
c69.333 0 104 -62.667 104 -188v-106c0 -56 4.33301 -97 13 -123c14.667 -43.333 42.667 -67 84 -71v-90c-42 0 -70 -22.667 -84 -68c-8.66699 -28 -13 -69.667 -13 -125v-106z" />
    <glyph glyph-name="nonbreakingspace" unicode="&#xa0;" horiz-adv-x="234" 
 />
    <glyph glyph-name="exclamdown" unicode="&#xa1;" horiz-adv-x="241" 
d="M185 -16h-127l10 318l20 301h67l20 -301zM186 737c0 -16.667 -6 -31.167 -18 -43.5s-26.667 -18.5 -44 -18.5s-32.166 6.16699 -44.499 18.5s-18.5 26.833 -18.5 43.5c0 17.333 6.16699 32.166 18.5 44.499s27.166 18.5 44.499 18.5s32 -6.16699 44 -18.5
s18 -27.166 18 -44.499z" />
    <glyph glyph-name="cent" unicode="&#xa2;" horiz-adv-x="317" 
d="M228 702c-11.333 24 -29.6689 36.002 -55.002 36.002c-34 0 -57.333 -19 -70 -57c-7.33301 -23.333 -11 -50.333 -11 -81c0 -62.667 15.333 -105.334 46 -128.001c10 -7.33301 22 -11 36 -11c26.667 0 46.334 17.667 59.001 53l64 -22
c-21.333 -64.667 -62.666 -97 -123.999 -97c-46 0 -83 18.833 -111 56.5s-42 87.167 -42 148.5c0 63.333 13.333 113.166 40 149.499s64.334 54.5 113.001 54.5c53.333 0 91.666 -26.667 114.999 -80z" />
    <glyph glyph-name="sterling" unicode="&#xa3;" horiz-adv-x="461" 
d="M26 456h37.999v120c0 61.333 7.33301 108 22 140c26.667 59.333 78 89 154 89c100 0 154.333 -55 163 -165h-102c-5.33301 44 -26.333 66 -63 66c-33.333 0 -54.666 -19.333 -63.999 -58c-4.66699 -17.333 -7 -50 -7 -98v-94h133v-94h-133v-128
c0 -60 -10.333 -107 -31 -141h271v-93h-383v95c26.667 42.667 40 97.667 40 165v102h-38v94z" />
    <glyph glyph-name="currency" unicode="&#xa4;" horiz-adv-x="470" 
d="M14 373l32 -0.00292969v31v43h-32v89h36c6 85.333 21.333 148 46 188c33.333 54 88 81 164 81c54 0 95.667 -19.667 125 -59c22 -30 35 -68.667 39 -116h-102c-6 50.667 -28.333 76 -67 76c-58 0 -91.333 -56.667 -100 -170h159v-89h-163c-1.33301 -24 -2 -36.333 -2 -37
c0 -15.333 0.333008 -27.666 1 -36.999h164v-89h-159c10.667 -124.667 45.667 -187 105 -187c19.333 0 35.333 10.667 48 32c10 18 15.667 37.667 17 59h103c-4 -53.333 -19.333 -97.666 -46 -132.999c-30 -40.667 -70.333 -61 -121 -61c-80 0 -136 31 -168 93
c-19.333 38.667 -33.333 104.334 -42 197.001h-37v89z" />
    <glyph glyph-name="yen" unicode="&#xa5;" horiz-adv-x="460" 
d="M59 491h67l-113 309h110l105 -301l107 301h111l-114 -309h67v-89h-100l-17 -47v-24h117v-89h-117v-242h-106v242h-117v89h117v22l-18 49h-99v89z" />
    <glyph glyph-name="brokenbar" unicode="&#xa6;" horiz-adv-x="108" 
d="M18 928h50v-488h-50v488zM18 349h50v-488h-50v488z" />
    <glyph glyph-name="section" unicode="&#xa7;" horiz-adv-x="1603" 
d="M1576 153c2 -4.66699 0.333984 -8.3252 -4.99902 -10.9922s-8 -5.66699 -8 -9c4 -23.333 8.33301 -57.333 13 -102c-2 7.33301 -4.33301 17 -7 29c-1.33301 -1.33301 -3.33301 -4.66602 -6 -9.99902c1.33301 6 0.333008 14.667 -3 26l-7 -20
c0.666992 1.33301 -0.333008 3.66602 -3 6.99902l-3 -4c2 8 0.666992 12.667 -4 14l-40 -36l-3 2c-10 -7.33301 -17 -25 -21 -53c-4.66699 23.333 -7.66699 50 -9 80l-17 110c-2 6 -7.66699 9.66699 -17 11c-11.333 2.66699 -18.666 5.66699 -21.999 9l-348 9l-1001 36
l-35 383c-0.666992 3.33301 -2 9.66602 -4 18.999s-3 16.333 -3 21c0 6 1 11.333 3 16l157 -3l1178 -57c2 4.66699 7.16699 7 15.5 7s12.833 2.33301 13.5 7c0.666992 10.667 -1 25.667 -5 45s-6 33 -6 41c0 6 0.666992 11.333 2 16l-4 -2l4 6c4 -26 10.667 -64.667 20 -116
c2 -2.66699 5.83301 -3.83398 11.5 -3.50098s9.5 -0.833984 11.5 -3.50098c0 -15.333 7.66699 -23 23 -23c-0.666992 0 -1.66699 -4.33301 -3 -13c2 -4.66699 4.66699 -6.33398 8 -5.00098c2.66699 1.33301 5.33398 3 8.00098 5c0 4.66699 -2.33301 10.834 -7 18.501
s-7 14.167 -7 19.5c0 2.66699 0.333008 5.33398 1 8.00098c5.33301 -0.666992 12 0.666016 20 3.99902c-4 13.333 -8.66699 39.666 -14 78.999c-0.666992 -3.33301 0.666016 -7.66602 3.99902 -12.999c2.66699 1.33301 3.66699 3.66602 3 6.99902v10
c0 -5.33301 1.33301 -11.333 4 -18c3.33301 -8.66699 5.33301 -14 6 -16l3 4c0 -2 1.33301 -4.33301 4 -7c2.66699 2.66699 3.66699 5 3 7c8.66699 -36.667 13 -56.334 13 -59.001c0 -10 -2 -18 -6 -24c0.666992 -6.66699 4 -15.667 10 -27l26 10l-3 -3l3 -4l-13 -13
c4 -39.333 14 -97 30 -173l10 7c-9.33301 -8.66699 -14 -14 -14 -16s1.33301 -4.33301 4 -7l3 -4l-3 -2c0 -8.66699 2 -21.5 6 -38.5s5.33301 -31.167 4 -42.5l-10 -6c-0.666992 -2 1.66602 -14.333 6.99902 -37c4.66699 2 9 3.66699 13 5
c5.33301 1.33301 9.66602 1 12.999 -1c-6.66699 -4 -10 -9.66699 -10 -17c0 -2.66699 0.666992 -6.83398 2 -12.501s2 -9.83398 2 -12.501c0 -6 -2.33301 -11 -7 -15c0 0.666992 -0.333008 -7 -1 -23c0 -8.66699 2.66699 -15.334 8 -20.001zM1465 694.009v4h-5v-4h5z
M1484 634.009v6h-4v-6h4zM1489 617.009v5h-5v-5h5zM1469 577.009v5h-5v-5h5zM1472 548.009v4h-5v-4h5zM1517 448.009l-20 113l-3 3c2 -26.667 3.16699 -41 3.5 -43s4.5 -25 12.5 -69l4 2c2.66699 -2.66699 3.66699 -4.66699 3 -6zM1411 604.009l-0.000976562 3
c-1.33301 2.66699 -3.66602 4 -6.99902 4c-4 -0.666992 -6.33301 -0.666992 -7 0zM1393 607.009v5h-6v-5h6zM1473 521.009v10h-3v-10h3zM1407 597.009l-9.99902 4l4 -4c-2.66699 -1.33301 -5.5 -3 -8.5 -5s-3.83301 -4.66699 -2.5 -8c4 -0.666992 8.66699 0.333008 14 3
l-7 7c1.33301 3.33301 4.66602 4.33301 9.99902 3zM1517 435.009v6h-3v-6h3zM1447 438.009l-23 129.999l-4 2c-5.33301 8.66699 -5.33301 15.334 0 20.001l11 -16l3 3c-3.33301 6.66699 -9 14.667 -17 24c1.33301 -12 -2 -22.333 -10 -31c-0.666992 2 -5 1.33301 -13 -2
l20 -143zM1293 620.008v6h-6v-6h6zM1536 352.008v6h-2v-6h2zM1536 292.008c-4 13.333 -6 32 -6 56c0 27.333 -1 46 -3 56c0 -4.66699 -1.33301 -7.66699 -4 -9c-2 -1.33301 -4 -0.333008 -6 3c-2 10.667 0 17.334 6 20.001l-6 -7c-1.33301 2 -2 4 -2 6
c0 1.33301 1 4.16602 3 8.49902s3 7.5 3 9.5s-0.333008 4 -1 6c0 -11.333 -2 -18 -6 -20c4 -28 10.667 -72.333 20 -133zM1510 225.008c-8 38 -17.334 96.167 -28.001 174.5s-20.334 136.5 -29.001 174.5c0.666992 -3.33301 -0.666016 -5.66602 -3.99902 -6.99902
c-5.33301 -1.33301 -8.33301 -2.33301 -9 -3l13 -106c0.666992 -0.666992 2.33398 -9.33398 5.00098 -26.001c2 -10 7 -14.667 15 -14c4.66699 -2 7.33398 -6 8.00098 -12c0.666992 -8 1.66699 -13 3 -15c-3.33301 -1.33301 -8 -4.33301 -14 -9l24 -153
c3.33301 0 8.66602 -1.33301 15.999 -4zM1540 332.008v10h-4v-10h4zM1545 325.008v5h-5v-5h5zM1447 418.008l-7 7v-7h7zM1467 402.008c-0.666992 1.33301 -4.00195 1.99902 -10.002 1.99902c-2.66699 -0.666992 -4 -2.66699 -4 -6s1.33301 -5.66602 4 -6.99902
c2.66699 1.33301 5.33398 2.5 8.00098 3.5s3.33398 3.5 2.00098 7.5zM1453 411.007c-2 0.666992 -3.99902 -0.333008 -5.99902 -3c-2.66699 2.66699 -5 3.66699 -7 3c3.33301 -2 7.66602 -2 12.999 0zM1547 295.007v13h-4v-13h4zM1444 398.007l-0.000976562 4
c-1.33301 -0.666992 -3.66602 0 -6.99902 2l-6 -6h13zM1556 209.007l-3 -4c-5.33301 11.333 -7.33301 19.333 -6 24c0.666992 2.66699 2.66699 5 6 7h-6l3 -44zM1480 229.007l-22.998 153l-6 6c-2.66699 0 -6.16699 -1 -10.5 -3s-7.5 -3 -9.5 -3
c-4.66699 0 -8.33398 3 -11.001 9l20 -146l24 4c7.33301 -2 12.666 -8.66699 15.999 -20zM1517 212.007c0 1.33301 -1 3.66699 -3 7l-4 -7h7zM1530 199.008c-2.66699 2 -5.33691 3.00098 -8.00391 3.00098c-3.33301 0 -7.66602 -2.16699 -12.999 -6.5
s-9.33301 -6.5 -12 -6.5c-3.33301 0 -6.66602 3.33301 -9.99902 10l13 6l-6 7c-18 7.33301 -27 15.333 -27 24c-2 -2.66699 -5.33301 -6.33398 -10 -11.001l20 -6c-2.66699 -2 -7.66699 -3.16699 -15 -3.5s-12.333 -1.5 -15 -3.5
c2.66699 -3.33301 2.66699 -7.66602 0 -12.999c5.33301 0 8.66602 -1 9.99902 -3c-1.33301 -2.66699 -4.66602 -4 -9.99902 -4c2 -2 7.33301 -2.83301 16 -2.5s13.334 -3.16699 14.001 -10.5l10 10c0.666992 2 2.33398 3 5.00098 3c2 0 3.66699 -1 5 -3l-17 -17
c6.66699 -1.33301 13.5 -3 20.5 -5s13.5 -2.33301 19.5 -1c0 3.33301 1.83301 7.66602 5.5 12.999s5.5 10 5.5 14c0 2 -0.333008 4 -1 6zM1561 103.009v5h-5v-5h5zM1500 156.009h-3v-3zM1520 153.009l-10 -10.999l-3 4c-5.33301 0 -8.66602 -1.33301 -9.99902 -4
c-0.666992 -5.33301 0.333008 -12.666 3 -21.999c1.33301 3.33301 5.66602 7.16602 12.999 11.499s11 8.16602 11 11.499c0 2.66699 -1.33301 6 -4 10zM1301 581.01c-4 2 -9.33301 2.99902 -16 2.99902s-11 -1.33301 -13 -4s-6.33301 -21.667 -13 -57
c-4.66699 -23.333 -10.667 -41.666 -18 -54.999c-10 14 -21 33.333 -33 58l-30 61h-26l83 -176l13 -109c0 -0.666992 1.33301 -11 4 -31c1.33301 -12.667 6.33301 -19 15 -19c4 0 8.66699 1 14 3l-16 149c9.33301 38.667 21.333 97.667 36 177zM1487 156.009
c-2.66699 0.666992 -5.16797 0.333008 -7.50098 -1s-3.16602 -3.33301 -2.49902 -6c6.66699 4 10 6.33301 10 7zM1473 159.008c0.666992 2 -0.333008 4.33301 -3 7v-10zM1482 136.008v5h-5v-5h5zM1542 73.0078v5h-6v-5h6zM1395 203.008v4h-5v-4h5zM1484 100.008v13l-4 7z
M1543 80.0078c-2 2 -2.83496 7.33105 -2.50195 15.998s-3.16699 13 -10.5 13c-8 -6 -16 -12.333 -24 -19c-10 -8.66699 -15 -16.667 -15 -24c0 -3.33301 1 -6.66602 3 -9.99902c-4 -2 -6.33301 -3 -7 -3c-1.33301 -2.66699 -0.666016 -6.66699 2.00098 -12
c0 -1.33301 0.333008 -2.66602 1 -3.99902c18.667 24.667 35.334 40 50.001 46zM1210.99 262.006l-15.999 49.999l-87 278h-29l-24 -321c2.66699 -5.33301 7.66699 -7.66602 15 -6.99902c12.667 0 18.667 0 18 0c-2 6 -3 12.333 -3 19c0 4.66699 0.833008 12 2.5 22
s2.5 17.333 2.5 22s-0.666992 9 -2 13c2.66699 10 11 15 25 15l35 -1c9.33301 -10.667 16.666 -25.667 21.999 -45c9.33301 -31.333 14.333 -47.333 15 -48c7.33301 -1.33301 16 -0.333008 26 3zM1293 249.005v5h-6v-5h6zM1178 252.005l-45.998 2.99902
c2 1.33301 15 2.66602 39 3.99902c-4 4.66699 -8.66699 21.667 -14 51c-4.66699 23.333 -14.334 35 -29.001 35c-6.66699 0 -15.334 -2.33301 -26.001 -7l-3 -72c2 -3.33301 7.66699 -4.66602 17 -3.99902s14 -0.666016 14 -3.99902c0 -1.33301 -0.666992 -3.33301 -2 -6h50
zM714.997 647.004v5h-5v-5h5zM1019 266.004l-7 186c2.66699 2.66699 2.66699 7 0 13l4 3c-2.66699 15.333 -4 36 -4 62v60c-2.66699 2.66699 -7.33398 4 -14.001 4h-15c-0.666992 -7.33301 -1 -15.333 -1 -24c0 -10 0.666992 -24.833 2 -44.5s2 -34.5 2 -44.5
c0 -14.667 -1 -28 -3 -40h-7c-6.66699 16 -14.334 41.833 -23.001 77.5s-16.667 61.834 -24 78.501h-23c-2.66699 -14.667 -3.66699 -40.667 -3 -78c0.666992 -33.333 -1.66602 -59.333 -6.99902 -78h-7c-5.33301 17.333 -11.333 44.166 -18 80.499s-12.667 62.833 -18 79.5
h-27l70 -332c2.66699 2 6.66699 2.33301 12 1c6.66699 -2 11.334 -2.33301 14.001 -1l7 183l7 6l6 -6l50 -183zM1314 205.004c-2.66699 0 -6 1.33301 -10 4l-3 -4l-3 4l-196 3zM978.997 269.004l-39.999 149l-3 -146c3.33301 0 8.66602 -1.16699 15.999 -3.5
s12.666 -3.5 15.999 -3.5c4.66699 0 8.33398 1.33301 11.001 4zM809.998 452.004c-3.33301 23.333 -6.33301 46.999 -9 70.999c-3.33301 28.667 -12.666 50 -27.999 64c-10 11.333 -24.667 18 -44 20h-52l37 -332c17.333 1.33301 42.666 0.333008 75.999 -3
c19.333 18 29 45.333 29 82c0 12.667 -1.33301 29.334 -4 50.001c-3.33301 25.333 -5 41.333 -5 48zM1431 216.003c-5.33301 16 -7.66406 24.665 -6.99707 25.998c-6.66699 -0.666992 -15.667 0.333008 -27 3c2 4.66699 5 7 9 7c1.33301 0 3.66602 -0.5 6.99902 -1.5
s6 -1.5 8 -1.5c2.66699 0 4.66699 2 6 6l-46 335c-10.667 0 -16.334 3.66699 -17.001 11c-29.333 2 -70.333 5.33301 -123 10l-3 -4l-1171 54c-0.666992 -0.666992 -3.66699 -0.666992 -9 0l-16 1l3 -10l1 -5c-0.666992 -2.66699 -0.666992 -4.33398 0 -5.00098v-3v-1
c0.666992 -2 0.666992 -3.33301 0 -4l30 -339c5.33301 0.666992 11.333 1 18 1c7.33301 0 18.333 -0.666992 33 -2s25.667 -2 33 -2c10.667 0 20.334 1 29.001 3l-31 339c18 8.66699 48.333 9.66699 91 3c32.667 -15.333 52.667 -36.333 60 -63c2.66699 -11.333 4 -23 4 -35
c0 -36.667 -10.333 -65 -31 -85c9.33301 -37.333 26 -92.666 50 -165.999c7.33301 2 17.333 1.83301 30 -0.5s20.334 -2.83301 23.001 -1.5c-10.667 7.33301 -19.667 21.333 -27 42c-19.333 82.667 -29 148 -29 196c0 32 3.33301 62 10 90
c14 18.667 29.333 27.334 46 26.001c4.66699 1.33301 9.33398 2 14.001 2c16.667 0 34.334 -10.333 53.001 -31c27.333 -75.333 41 -156.333 41 -243c0 -17.333 -0.666992 -35 -2 -53c-4 -8 -8.33301 -19 -13 -33c1.33301 -0.666992 3.66602 0.666016 6.99902 3.99902
c0.666992 -1.33301 10.334 -2.66602 29.001 -3.99902l4 46l20 289l10 10c17.333 1.33301 31.333 -2 42 -10l100 -338l-3 -4c2.66699 2 5.66699 3 9 3c2.66699 0 5.33398 -1 8.00098 -3l-4 4l-36 328l3 13l46 1c18.667 0 33 -2.33301 43 -7c16 -13.333 25 -20.666 27 -21.999
c9.33301 -9.33301 15 -18.666 17 -27.999c20 -100 30 -163.333 30 -190c0 -38.667 -6.66699 -72.667 -20 -102c16 0.666992 41.333 -0.333008 76 -3l-73 342c5.33301 2 12.333 3 21 3h22c9.33301 -16 16.666 -37 21.999 -63c3.33301 -22 7 -44 11 -66
c-0.666992 13.333 0.166016 32.833 2.49902 58.5s2.83301 45.834 1.5 60.501c9.33301 8.66699 24.666 9.66699 45.999 3l33 -122v119c21.333 8.66699 38 7.66699 50 -3l7 -332l7 -7c-3.33301 -2.66699 -4.66602 -5 -3.99902 -7h23l-3 4l-3 -4l-7 7l3 4l21 331l6 7h25
c10 0 17.333 -2.33301 22 -7l106 -338l16 -4c0 20 -2 44 -6 72l-10 71l-90 196l7 7c5.33301 1.33301 10.333 2 15 2c22 0 38.667 -14.667 50 -44c16.667 -40.667 27 -63.334 31 -68.001c4 9.33301 8.33301 27.333 13 54c4 23.333 9.66699 40.666 17 51.999
c6.66699 1.33301 14.667 1 24 -1c13.333 -3.33301 20.666 -5.33301 21.999 -6l-36 -175l16 -160l103 -6c-14.667 -2.66699 -30.667 -4 -48 -4c-16.667 0 -32.667 1.33301 -48 4l-3 -4c14 2 34 1.66699 60 -1s45.667 -3.33398 59 -2.00098l7 -6
c-4.66699 -2.66699 -10.334 -4 -17.001 -4s-12.334 1.33301 -17.001 4l-1161 39c-16.667 -2 -39 -2.33301 -67 -1c-32 2 -55 2.33301 -69 1c0.666992 -3.33301 -0.333008 -7.66602 -3 -12.999l-7 7c1.33301 -0.666992 3 -2.66699 5 -6s4.33301 -5 7 -5
c1.33301 0 3 0.333008 5 1c15.333 -2.66699 37.333 -2.66699 66 0c1.33301 2 4.66602 3 9.99902 3c2.66699 -2.66699 3.66699 -5 3 -7c14.667 1.33301 35.667 0.333008 63 -3v3c1.33301 2 6 1 14 -3zM680 275.001l-3 3.99805l-96 332c-15.333 0 -25.333 1 -30 3l-23 -328
c0.666992 -1.33301 9.66699 -2.66602 27 -3.99902l2 76c2 11.333 7.66699 17 17 17c3.33301 0 9 -0.833008 17 -2.5s14 -2.5 18 -2.5c3.33301 0 6 0.333008 8 1c7.33301 -11.333 14 -26.666 20 -45.999l14 -50c6 -0.666992 15.667 -0.666992 29 0zM859 221.999v3h-129l93 -3
h36zM640 278.999c-4 8 -8.16699 21.168 -12.5 39.501s-8.83301 31.5 -13.5 39.5c-10.667 -0.666992 -25 0.666016 -43 3.99902l-7 -80zM481 378c-7.33301 82 -11 123.999 -11 125.999c-7.33301 46.667 -21.333 84.334 -42 113.001c-17.333 14.667 -37 18 -59 10
c-21.333 -15.333 -30.333 -43 -27 -83l8 -136c6.66699 -51.333 21.667 -91.333 45 -120c28 -9.33301 50 -11.333 66 -6c13.333 15.333 20 47.333 20 96zM624 266.999l-7 5h-49zM319 287.999l-50 170l17 20c8 17.333 12 36 12 56c0 30 -8.66699 55.667 -26 77
c-10.667 8.66699 -26.334 13.667 -47.001 15c-18 0.666992 -36 1 -54 1l28 -335h30c-10.667 82.667 -15 136.667 -13 162c2.66699 2.66699 5.66699 4 9 4c6.66699 0 13.334 -3.33301 20.001 -10c3.33301 -12.667 19 -66 47 -160h27zM41 606.999v5h-4v-5h4zM405 278.999
l-77 3l-3 -3h80zM45 580.999v5h-5v-5h5zM282 287.999c-12 33.333 -27.334 84.332 -46.001 152.999c-6 0 -9.66699 1.33301 -11 4c2.66699 -62 7.33398 -112 14.001 -150l-3 -3c10.667 0.666992 26 -0.666016 46 -3.99902zM47.999 553.998v5h-5v-5h5zM444.999 238.998l-179 3
l169 -6zM49.999 490.998v7h-4v-7h4zM54.999 467.998v5h-5v-5h5zM238.999 281.998c-1.33301 2 -3.33203 3 -5.99902 3c-0.666992 0 -3.33398 -1 -8.00098 -3c-3.33301 -1.33301 -6.33301 -1.33301 -9 0h23zM62 407.998v5h-5v-5h5zM65 364.998v5h-6v-5h6zM70 298.998v9h-4v-9
h4zM156 248.998c1.33301 0 -12 -0.333008 -40 -1c-17.333 0 -29 3.66699 -35 11v-10h75zM88 278.998v4h-5v-4h5zM74 251.998l-1 23h-3l1 -23h3zM1527 384.998h-4v6h4v-6zM1530 364.998h-3v10h3v-10zM1462 191.998h-5v5h5v-5zM1138 387.998
c-0.666992 -0.666992 -12.667 -1.66699 -36 -3c-2 8.66699 -3 18.334 -3 29.001c0 8.66699 1 21.167 3 37.5s3 28.166 3 35.499h3c7.33301 -22 17.333 -55 30 -99zM783 314.998c-7.33301 -11.333 -21.666 -13.666 -42.999 -6.99902l-30 260c5.33301 4 11.666 6 18.999 6
c16.667 0 28 -7.66699 34 -23c16 -56.667 24 -113.667 24 -171c0 -22.667 -1.33301 -44.334 -4 -65.001zM607 407.998c-3.33301 -2 -6.66699 -3 -10 -3c-2 0 -5.5 0.666992 -10.5 2s-9.16699 2 -12.5 2c-2 0 -4 -0.333008 -6 -1l6 100h7c7.33301 -22 16 -55.333 26 -100z
M451.999 357.998c-0.666992 -0.666992 -2.33398 -9.33203 -5.00098 -25.999c-2 -10.667 -7.33301 -17.334 -16 -20.001c-22 6.66699 -35.667 25.334 -41 56.001l-12 77c-7.33301 70.667 -7.33301 118 0 142c4.66699 6.66699 10.334 10 17.001 10c16 0 26 -9 30 -27
c18 -88.667 27 -159.334 27 -212.001zM258.999 501c-5.33301 -7.33301 -12.002 -11.001 -20.002 -11.001c-15.333 0.666992 -23.666 1 -24.999 1c-0.666992 2.66699 -5 34.667 -13 96c6 4.66699 14 7 24 7c20.667 0 34.334 -6.66699 41.001 -20
c2.66699 -5.33301 4 -11.333 4 -18c0 2.66699 -3.66699 -15.666 -11 -54.999zM57.9971 653.999l-6 3h6v-3zM1128 397.999l-20.001 60v-63c6.66699 -1.33301 13.334 -0.333008 20.001 3zM775.996 321.999c2.66699 18.667 4 38.002 4 58.002c0 46 -6.66699 97.333 -20 154
c0 9.33301 -4.16699 16.666 -12.5 21.999s-17.5 8 -27.5 8l30 -249c11.333 -0.666992 20 1.66602 26 6.99902zM596.996 415.001l-16 63l-7 -60c6 1.33301 13.667 0.333008 23 -3zM437.996 328.001c2.66699 17.333 4 35.668 4 55.001c0 25.333 -2.66699 55.666 -8 90.999
l-16 90c-11.333 16 -20.333 23.667 -27 23c-6.66699 -6.66699 -10 -17.667 -10 -33l1 -36l23 -180l10 -13c11.333 -8.66699 19 -7.66699 23 3zM261.996 557.003c0.666992 14 -16.333 23 -51 27l7 -83c4.66699 -0.666992 13.667 -0.666992 27 0c16 11.333 21.667 30 17 56z
" />
    <glyph glyph-name="dieresis" unicode="&#xa8;" horiz-adv-x="516" 
d="M106 901c0 14.667 5 27 15 37s22.333 15 37 15s27 -5 37 -15s15 -22.333 15 -37s-5 -27 -15 -37s-22.333 -15 -37 -15s-27 5 -37 15s-15 22.333 -15 37zM256 901c0 14.667 5 27 15 37s22.333 15 37 15s27 -5 37 -15s15 -22.333 15 -37s-5 -27 -15 -37
s-22.333 -15 -37 -15s-27 5 -37 15s-15 22.333 -15 37z" />
    <glyph glyph-name="copyright" unicode="&#xa9;" horiz-adv-x="653" 
d="M387 576c-10.667 24 -29 36.002 -55 36.002c-33.333 0 -56.333 -19 -69 -57c-8 -23.333 -12 -50.333 -12 -81c0 -62.667 15.667 -105.334 47 -128.001c9.33301 -7.33301 21 -11 35 -11c27.333 0 47 17.667 59 53l64 -22c-20.667 -64.667 -62 -97 -124 -97
c-46 0 -83 18.833 -111 56.5s-42 87.167 -42 148.5c0 63.333 13.5 113.166 40.5 149.499s64.5 54.5 112.5 54.5c53.333 0 92 -26.667 116 -80zM607 475.002c0 -96.667 -23.667 -175.667 -71 -237c-50.667 -65.333 -120.667 -98 -210 -98s-159.666 32.667 -210.999 98
c-47.333 61.333 -71 140.333 -71 237c0 97.333 23.667 176.666 71 237.999c51.333 65.333 121.666 98 210.999 98s159.333 -32.667 210 -98c47.333 -61.333 71 -140.666 71 -237.999zM540 475.002c0 80.667 -17 144.667 -51 192c-37.333 52.667 -91.666 79 -162.999 79
c-72 0 -126.667 -26.333 -164 -79c-34 -47.333 -51 -111.333 -51 -192c0 -80 17 -143.667 51 -191c37.333 -52.667 92 -79 164 -79c71.333 0 125.666 26.333 162.999 79c34 47.333 51 111 51 191z" />
    <glyph glyph-name="ordfeminine" unicode="&#xaa;" 
d="M267 400l-28 94h-125l-28 -94h-69l124 400h73l123 -400h-70zM177 694l-45 -140h88zM15 346h320v-56h-320v56z" />
    <glyph glyph-name="guillemotleft" unicode="&#xab;" horiz-adv-x="302" 
d="M69 411l67 -56v-63l-113 94v49l113 96v-64zM209 411l67 -56v-63l-113 94v49l113 96v-64z" />
    <glyph glyph-name="minus" unicode="&#xad;" horiz-adv-x="444" 
d="M41 454h360v-89h-360v89z" />
    <glyph glyph-name="minus" unicode="&#x2212;" horiz-adv-x="444" 
d="M41 454h360v-89h-360v89z" />
    <glyph glyph-name="registered" unicode="&#xae;" horiz-adv-x="653" 
d="M607 475c0 -96.667 -23.667 -175.667 -71 -237c-50.667 -65.333 -120.667 -98 -210 -98s-159.666 32.667 -210.999 98c-47.333 61.333 -71 140.333 -71 237c0 97.333 23.667 176.666 71 237.999c51.333 65.333 121.666 98 210.999 98s159.333 -32.667 210 -98
c47.333 -61.333 71 -140.666 71 -237.999zM540 475c0 80.667 -17 144.667 -51 192c-37.333 52.667 -91.666 79 -162.999 79c-72 0 -126.667 -26.333 -164 -79c-34 -47.333 -51 -111.333 -51 -192c0 -80 17 -143.667 51 -191c37.333 -52.667 92 -79 164 -79
c71.333 0 125.666 26.333 162.999 79c34 47.333 51 111 51 191zM324 443h-62.001v-168h-66v400h151c36 0 64.333 -10.5 85 -31.5s31 -49.167 31 -84.5c0 -28 -6.16699 -51.833 -18.5 -71.5s-28.166 -32.167 -47.499 -37.5l67 -175h-76zM261.999 616v-114h86
c30.667 0 46 18.333 46 55c0 39.333 -15.333 59 -46 59h-86z" />
    <glyph glyph-name="macron" unicode="&#xaf;" 
d="M15 916h320v-56h-320v56z" />
    <glyph glyph-name="macron" unicode="&#x2c9;" 
d="M15 916h320v-56h-320v56z" />
    <glyph glyph-name="degree" unicode="&#xb0;" horiz-adv-x="261" 
d="M131 631c-30 0 -55.165 11 -75.498 33s-30.5 50.333 -30.5 85c0 36 9.83301 64.833 29.5 86.5s45.167 32.167 76.5 31.5c31.333 0 56.666 -10.833 75.999 -32.5s29 -50.167 29 -85.5s-9.83301 -63.833 -29.5 -85.5s-44.834 -32.5 -75.501 -32.5zM131.002 821
c-16.667 0 -30.5 -7.16699 -41.5 -21.5s-16.5 -31.166 -16.5 -50.499c0 -20.667 5.16699 -38.334 15.5 -53.001s24.5 -22 42.5 -22c16.667 0 30.5 7.5 41.5 22.5s16.5 32.5 16.5 52.5s-5.33301 37 -16 51s-24.667 21 -42 21z" />
    <glyph glyph-name="twosuperior" unicode="&#xb2;" horiz-adv-x="252" 
d="M89 442l120.001 -0.000976562v-47h-179v22c0 44.667 12.333 86.334 37 125.001l75 102c14 22 21 42.333 21 61c0 27.333 -11.333 41 -34 41c-26 0 -38.333 -17 -37 -51h-52c0 28.667 7 52.334 21 71.001c16 22.667 38.667 34 68 34
c27.333 0 48.666 -8.83301 63.999 -26.5s23 -39.834 23 -66.501c0 -36 -20.333 -80.333 -61 -133s-62.667 -96.667 -66 -132z" />
    <glyph glyph-name="threesuperior" unicode="&#xb3;" horiz-adv-x="248" 
d="M83 713c3.33301 25.333 16 38.001 38 38.001c22.667 0 34 -17.667 34 -53c0 -23.333 -4.33301 -39.5 -13 -48.5s-23.334 -13.5 -44.001 -13.5v-47c38 0 57.667 -21 59 -63v-20c-0.666992 -40 -14 -60 -40 -60c-19.333 0 -31 15.333 -35 46h-52
c1.33301 -28 9 -50.667 23 -68c15.333 -19.333 36.666 -29 63.999 -29c35.333 0 60.333 11.333 75 34c7.33301 12.667 12.666 33.667 15.999 63c1.33301 11.333 1.33301 26.666 0 45.999c-3.33301 42.667 -15.666 68.667 -36.999 78c14.667 7.33301 24.334 18.333 29.001 33
c3.33301 10 5 29 5 57c0 62.667 -29 94 -87 94c-27.333 0 -48.666 -9.66699 -63.999 -29c-12.667 -16 -20 -35.333 -22 -58h51z" />
    <glyph glyph-name="acute" unicode="&#xb4;" horiz-adv-x="374" 
d="M176 848h-83l113 123l102 -1z" />
    <glyph glyph-name="periodcentered" unicode="&#xb7;" horiz-adv-x="158" 
d="M22 430c0 16 5.5 29.5 16.5 40.5s24.5 16.5 40.5 16.5s29.5 -5.5 40.5 -16.5s16.5 -24.5 16.5 -40.5s-5.5 -29.5 -16.5 -40.5s-24.5 -16.5 -40.5 -16.5s-29.5 5.5 -40.5 16.5s-16.5 24.5 -16.5 40.5z" />
    <glyph glyph-name="periodcentered" unicode="&#x2219;" horiz-adv-x="158" 
d="M22 430c0 16 5.5 29.5 16.5 40.5s24.5 16.5 40.5 16.5s29.5 -5.5 40.5 -16.5s16.5 -24.5 16.5 -40.5s-5.5 -29.5 -16.5 -40.5s-24.5 -16.5 -40.5 -16.5s-29.5 5.5 -40.5 16.5s-16.5 24.5 -16.5 40.5z" />
    <glyph glyph-name="cedilla" unicode="&#xb8;" horiz-adv-x="292" 
d="M162 0v-58.001c33.333 0 50 -17.333 50 -52c0 -17.333 -6.16699 -31.166 -18.5 -41.499s-26.5 -15.5 -42.5 -15.5h-5c-13.333 0 -23.333 3 -30 9l12 30c10 -3.33301 15.667 -5 17 -5c20 0 30 7.33301 30 22c0 16 -9.66699 24 -29 24c-6 0 -13 -1 -21 -3v90h37z" />
    <glyph glyph-name="onesuperior" unicode="&#xb9;" horiz-adv-x="179" 
d="M41 773c22 2.66699 37 12 45 28h39v-400h-53v344h-31v28z" />
    <glyph glyph-name="ordmasculine" unicode="&#xba;" horiz-adv-x="343" 
d="M171 396c-100.667 0 -151 68 -151 204c0 135.333 50.333 203 151 203c100 0 150 -67.667 150 -203c0 -136 -50 -204 -150 -204zM171 743c-55.333 0 -83 -47.667 -83 -143s27.667 -143 83 -143c54.667 0 82 47.667 82 143s-27.333 143 -82 143zM29 346h288v-56h-288v56z
" />
    <glyph glyph-name="guillemotright" unicode="&#xbb;" horiz-adv-x="302" 
d="M230 411l-67 -56v-63l113 94v49l-113 96v-64zM90 411l-67 -56v-63l113 94v49l-113 96v-64z" />
    <glyph glyph-name="onequarter" unicode="&#xbc;" horiz-adv-x="363" 
d="M41 773c22 2.66699 37.333 12 46 28h39v-400h-54v344h-31v28zM244 160v137l-65 -137h65zM295 -1h-51v115h-116v45l112 240h55v-239h27v-46h-27v-115z" />
    <glyph glyph-name="onehalf" unicode="&#xbd;" horiz-adv-x="407" 
d="M41 773c22 2.66699 37.333 12 46 28h39v-400h-54v344h-31v28zM234 47l121.002 0.00195312v-47h-180v23c0 44.667 12.667 86 38 124l75 103c13.333 21.333 20 41.333 20 60c0 27.333 -11.333 41 -34 41c-26 0 -38 -17 -36 -51h-52c0 28.667 7 52.667 21 72
c15.333 22 37.666 33 66.999 33c27.333 0.666992 48.666 -7.83301 63.999 -25.5s23 -39.834 23 -66.501c0 -36.667 -20.333 -81.334 -61 -134.001s-62.667 -96.667 -66 -132z" />
    <glyph glyph-name="threequarters" unicode="&#xbe;" horiz-adv-x="363" 
d="M283 160v137l-65 -137h65zM334 -1h-51v115h-116v45l112 240h55v-239h27v-46h-27v-115zM83 713c3.33301 25.333 16 38.001 38 38.001c22.667 0 34 -17.667 34 -53c0 -23.333 -4.5 -39.5 -13.5 -48.5s-23.5 -13.5 -43.5 -13.5v-47c38 0 57.667 -21 59 -63v-20
c-0.666992 -40 -14 -60 -40 -60c-20 0 -32 15.333 -36 46h-51c1.33301 -28 9 -50.667 23 -68c15.333 -19.333 36.666 -29 63.999 -29c35.333 0 60 11.333 74 34c8 12.667 13.667 33.667 17 63c1.33301 11.333 1.33301 26.666 0 45.999
c-3.33301 42.667 -15.666 68.667 -36.999 78c14.667 7.33301 24 18.333 28 33c3.33301 10 5.33301 29 6 57c0 62.667 -29 94 -87 94c-27.333 0 -49 -9.66699 -65 -29c-12 -16 -19 -35.333 -21 -58h51z" />
    <glyph glyph-name="questiondown" unicode="&#xbf;" horiz-adv-x="442" 
d="M350 624c0 -56 -4.00098 -99.999 -12.001 -131.999s-22 -60.333 -42 -85c-44 -54.667 -74.333 -95.334 -91 -122.001c-28 -43.333 -42 -80.333 -42 -111c0 -24.667 6.16699 -44.5 18.5 -59.5s28.833 -22.5 49.5 -22.5c27.333 0 47.333 11.667 60 35
c10 18 14.333 40.333 13 67h104c0 -57.333 -14 -105 -42 -143c-31.333 -44.667 -76.333 -67 -135 -67c-54 -0.666992 -97 17.333 -129 54c-29.333 34 -44 77.667 -44 131c0 47.333 12.333 93.333 37 138c12.667 22.667 40.334 61.667 83.001 117
c30.667 40 49.5 70.167 56.5 90.5s10.5 56.833 10.5 109.5h105zM357.999 749.001c0 -17.333 -6.16699 -32.166 -18.5 -44.499s-27.166 -18.5 -44.499 -18.5s-32 6.16699 -44 18.5s-18 27.166 -18 44.499c0 16.667 6 31.167 18 43.5s26.667 18.5 44 18.5
s32.166 -6.16699 44.499 -18.5s18.5 -26.833 18.5 -43.5z" />
    <glyph glyph-name="Agrave" unicode="&#xc0;" horiz-adv-x="456" 
d="M231 514l-32 -185h67zM275 800l166 -800h-105l-48 219h-114l-51 -219h-106l170 800h88zM235 848h83l-113 123l-102 -1z" />
    <glyph glyph-name="Aacute" unicode="&#xc1;" horiz-adv-x="458" 
d="M216 848h-83l113 123l102 -1zM231 514l-32 -185h67zM275 800l166 -800h-105l-48 219h-114l-51 -219h-106l170 800h88z" />
    <glyph glyph-name="Acircumflex" unicode="&#xc2;" horiz-adv-x="463" 
d="M230 883l-40 -50h-62l75 97h55l75 -97h-62zM231 514l-32 -185h67zM275 800l166 -800h-105l-48 219h-114l-51 -219h-106l170 800h88z" />
    <glyph glyph-name="Atilde" unicode="&#xc3;" horiz-adv-x="456" 
d="M231 514l-32 -185h67zM275 800l166 -800h-105l-48 219h-114l-51 -219h-106l170 800h88zM271 830c-9.33301 0 -22.334 6.33398 -39.001 19.001c-17.333 17.333 -31 25.666 -41 24.999c-18.667 0.666992 -28 -13 -28 -41c-1.33301 -2 -4.33301 -2.66699 -9 -2
c-4 0.666992 -6.33301 0.666992 -7 0c-4.66699 17.333 -5 36.333 -1 57c6 15.333 13.667 25.333 23 30c4 2 12 3 24 3c10 0 23.5 -7.16699 40.5 -21.5s29.167 -21.5 36.5 -21.5c19.333 0 29 12 29 36h15c8 -22.667 8 -44 0 -64c-7.33301 -13.333 -21.666 -20 -42.999 -20z
" />
    <glyph glyph-name="Adieresis" unicode="&#xc4;" horiz-adv-x="456" 
d="M231 514l-32 -185h67zM275 800l166 -800h-105l-48 219h-114l-51 -219h-106l170 800h88zM106 901c0 14.667 5 27 15 37s22.333 15 37 15s27 -5 37 -15s15 -22.333 15 -37s-5 -27 -15 -37s-22.333 -15 -37 -15s-27 5 -37 15s-15 22.333 -15 37zM256 901
c0 14.667 5 27 15 37s22.333 15 37 15s27 -5 37 -15s15 -22.333 15 -37s-5 -27 -15 -37s-22.333 -15 -37 -15s-27 5 -37 15s-15 22.333 -15 37z" />
    <glyph glyph-name="Aring" unicode="&#xc5;" horiz-adv-x="456" 
d="M231 514l-32 -185h67zM275 800l166 -800h-105l-48 219h-114l-51 -219h-106l170 800h88zM233 843c-20.667 0 -38.167 7.66797 -52.5 23.001s-21.5 35.333 -21.5 60s6.83301 44.667 20.5 60s31.5 22.666 53.5 21.999c22 0 39.667 -7.5 53 -22.5s20 -34.833 20 -59.5
c0 -25.333 -6.83301 -45.5 -20.5 -60.5s-31.167 -22.5 -52.5 -22.5zM233 976.001c-11.333 0 -21 -5 -29 -15s-12 -21.667 -12 -35c0 -14.667 3.66699 -27.167 11 -37.5s17.333 -15.5 30 -15.5c12 0 21.667 5.33301 29 16s11 23 11 37s-3.66699 25.833 -11 35.5
s-17 14.5 -29 14.5z" />
    <glyph glyph-name="AE" unicode="&#xc6;" horiz-adv-x="550" 
d="M231 514l-32 -185h67zM189 800h337v-93h-232l48 -234h144v-93h-120l56 -287h109v-93h-195l-48 219h-114l-51 -219h-106l170 800h2z" />
    <glyph glyph-name="Ccedilla" unicode="&#xc7;" horiz-adv-x="421" 
d="M245 -6l-0.00195312 -41.001c33.333 0 50 -17.333 50 -52c0 -18 -6.16699 -32.167 -18.5 -42.5s-26.5 -15.5 -42.5 -15.5h-5c-13.333 0 -23.333 3 -30 9l12 31c10 -3.33301 15.667 -5 17 -5c20 0 30 7 30 21c0 16.667 -9.66699 25 -29 25c-6 0 -13 -1 -21 -3v75
c-71.333 8.66699 -120.333 48 -147 118c-12.667 34 -23.667 102.667 -33 206c-2 20 -2.66699 48 -2 84c0 16 0.333008 39.667 1 71c4.66699 107.333 17.334 183 38.001 227c32 68.667 90.333 103 175 103c54 0 95.667 -19.667 125 -59c22 -30 35 -68.667 39 -116h-102
c-6 50.667 -28.333 76 -67 76c-45.333 0 -75 -31 -89 -93c-4.66699 -18.667 -9.66699 -72.667 -15 -162c-1.33301 -22 -2 -35.667 -2 -41c0 -21.333 0.333008 -36.666 1 -45.999c6 -88 12.333 -144.333 19 -169c16 -65.333 46.333 -98 91 -98c19.333 0 35.333 10.667 48 32
c10 18 15.667 37.667 17 59h103c-4 -52.667 -19 -96.667 -45 -132c-29.333 -40 -68.666 -60.667 -117.999 -62z" />
    <glyph glyph-name="Egrave" unicode="&#xc8;" horiz-adv-x="374" 
d="M33 800h307v-93h-204v-231h118v-93h-118v-290h214v-93h-317v800zM205 838h83l-113 123l-102 -1z" />
    <glyph glyph-name="Eacute" unicode="&#xc9;" horiz-adv-x="374" 
d="M33 800h307v-93h-204v-231h118v-93h-118v-290h214v-93h-317v800zM176 848h-83l113 123l102 -1z" />
    <glyph glyph-name="Ecircumflex" unicode="&#xca;" horiz-adv-x="374" 
d="M33 800h307v-93h-204v-231h118v-93h-118v-290h214v-93h-317v800zM191 883l-40 -50h-62l75 97h55l75 -97h-62z" />
    <glyph glyph-name="Edieresis" unicode="&#xcb;" horiz-adv-x="374" 
d="M33 800h307v-93h-204v-231h118v-93h-118v-290h214v-93h-317v800zM66 901c0 14.667 5 27 15 37s22.333 15 37 15s27 -5 37 -15s15 -22.333 15 -37s-5 -27 -15 -37s-22.333 -15 -37 -15s-27 5 -37 15s-15 22.333 -15 37zM216 901c0 14.667 5 27 15 37s22.333 15 37 15
s27 -5 37 -15s15 -22.333 15 -37s-5 -27 -15 -37s-22.333 -15 -37 -15s-27 5 -37 15s-15 22.333 -15 37z" />
    <glyph glyph-name="Igrave" unicode="&#xcc;" horiz-adv-x="209" 
d="M51 800h107v-800h-107v800zM125 848h83l-113 123l-102 -1z" />
    <glyph glyph-name="Iacute" unicode="&#xcd;" horiz-adv-x="209" 
d="M51 800h107v-800h-107v800zM86 848h-83l113 123l102 -1z" />
    <glyph glyph-name="Icircumflex" unicode="&#xce;" horiz-adv-x="209" 
d="M51 800h107v-800h-107v800zM110 883l-40 -50h-62l75 97h55l75 -97h-62z" />
    <glyph glyph-name="Idieresis" unicode="&#xcf;" horiz-adv-x="209" 
d="M51 800h107v-800h-107v800zM-24 901c0 14.667 5 27 15 37s22.333 15 37 15s27 -5 37 -15s15 -22.333 15 -37s-5 -27 -15 -37s-22.333 -15 -37 -15s-27 5 -37 15s-15 22.333 -15 37zM126 901c0 14.667 5 27 15 37s22.333 15 37 15s27 -5 37 -15s15 -22.333 15 -37
s-5 -27 -15 -37s-22.333 -15 -37 -15s-27 5 -37 15s-15 22.333 -15 37z" />
    <glyph glyph-name="Eth" unicode="&#xd0;" horiz-adv-x="433" 
d="M136 455h27.9971v-91h-28v-269h37c40 0 64.667 10.333 74 31c12.667 28 24.334 95 35.001 201c2 24 3 49.333 3 76c0 30 -0.666992 52.667 -2 68c-9.33301 106.667 -19.166 173 -29.499 199s-37.166 39 -80.499 39h-37v-254zM3.99707 455l29.001 -0.00195312v345h155
c83.333 0 137.333 -28 162 -84c17.333 -37.333 29.666 -115.666 36.999 -234.999c1.33301 -23.333 2 -48.333 2 -75c0 -25.333 -1 -52.666 -3 -81.999c-9.33301 -129.333 -22 -210 -38 -242c-26 -54.667 -80.667 -82 -164 -82h-151v364h-29v91z" />
    <glyph glyph-name="Ntilde" unicode="&#xd1;" horiz-adv-x="414" 
d="M133 474v-474h-103v798h104l146 -451v451h102v-798h-103zM251 830c-9.33301 0 -22.334 6.33398 -39.001 19.001c-17.333 17.333 -31 25.666 -41 24.999c-18.667 0.666992 -28 -13 -28 -41c-1.33301 -2 -4.33301 -2.66699 -9 -2c-4 0.666992 -6.33301 0.666992 -7 0
c-4.66699 17.333 -5 36.333 -1 57c6 15.333 13.667 25.333 23 30c4 2 12 3 24 3c10 0 23.5 -7.16699 40.5 -21.5s29.167 -21.5 36.5 -21.5c19.333 0 29 12 29 36h15c8 -22.667 8 -44 0 -64c-7.33301 -13.333 -21.666 -20 -42.999 -20z" />
    <glyph glyph-name="Ograve" unicode="&#xd2;" horiz-adv-x="463" 
d="M232 93c28 -0.666992 46.998 9.66699 56.998 31c19.333 44 31 124 35 240v46c0 22.667 -0.333008 39.667 -1 51c-6 104.667 -17 174.667 -33 210c-11.333 23.333 -30.666 35 -57.999 35s-46.666 -11.333 -57.999 -34c-16 -38.667 -27 -109 -33 -211
c-0.666992 -12 -1 -29.667 -1 -53v-44c2.66699 -114.667 15 -194.667 37 -240c10 -20.667 28.333 -31 55 -31zM231.998 805.001c79.333 0 132.001 -29.334 158.001 -88.001c26.667 -63.333 40 -174 40 -332c0 -25.333 -0.666992 -47 -2 -65
c-6.66699 -79.333 -10 -119.333 -10 -120c-6.66699 -51.333 -16.334 -90.666 -29.001 -117.999c-30.667 -58.667 -83 -88 -157 -88c-76 0 -127.667 29.667 -155 89c-16.667 33.333 -29 108 -37 224c-2.66699 40 -4 75.667 -4 107c0 138.667 13 239.667 39 303
c12 26.667 31.833 48 59.5 64s60.167 24 97.5 24zM230.999 838h83l-113 123l-102 -1z" />
    <glyph glyph-name="Oacute" unicode="&#xd3;" horiz-adv-x="463" 
d="M216 848h-83l113 123l102 -1zM232 93c28 -0.666992 46.998 9.66699 56.998 31c19.333 44 31 124 35 240v46c0 22.667 -0.333008 39.667 -1 51c-6 104.667 -17 174.667 -33 210c-11.333 23.333 -30.666 35 -57.999 35s-46.666 -11.333 -57.999 -34
c-16 -38.667 -27 -109 -33 -211c-0.666992 -12 -1 -29.667 -1 -53v-44c2.66699 -114.667 15 -194.667 37 -240c10 -20.667 28.333 -31 55 -31zM231.998 805.001c79.333 0 132.001 -29.334 158.001 -88.001c26.667 -63.333 40 -174 40 -332c0 -25.333 -0.666992 -47 -2 -65
c-6.66699 -79.333 -10 -119.333 -10 -120c-6.66699 -51.333 -16.334 -90.666 -29.001 -117.999c-30.667 -58.667 -83 -88 -157 -88c-76 0 -127.667 29.667 -155 89c-16.667 33.333 -29 108 -37 224c-2.66699 40 -4 75.667 -4 107c0 138.667 13 239.667 39 303
c12 26.667 31.833 48 59.5 64s60.167 24 97.5 24z" />
    <glyph glyph-name="Ocircumflex" unicode="&#xd4;" horiz-adv-x="463" 
d="M231 883l-40 -50h-62l75 97h55l75 -97h-62zM232 93c28 -0.666992 46.998 9.66699 56.998 31c19.333 44 31 124 35 240v46c0 22.667 -0.333008 39.667 -1 51c-6 104.667 -17 174.667 -33 210c-11.333 23.333 -30.666 35 -57.999 35s-46.666 -11.333 -57.999 -34
c-16 -38.667 -27 -109 -33 -211c-0.666992 -12 -1 -29.667 -1 -53v-44c2.66699 -114.667 15 -194.667 37 -240c10 -20.667 28.333 -31 55 -31zM231.998 805.001c79.333 0 132.001 -29.334 158.001 -88.001c26.667 -63.333 40 -174 40 -332c0 -25.333 -0.666992 -47 -2 -65
c-6.66699 -79.333 -10 -119.333 -10 -120c-6.66699 -51.333 -16.334 -90.666 -29.001 -117.999c-30.667 -58.667 -83 -88 -157 -88c-76 0 -127.667 29.667 -155 89c-16.667 33.333 -29 108 -37 224c-2.66699 40 -4 75.667 -4 107c0 138.667 13 239.667 39 303
c12 26.667 31.833 48 59.5 64s60.167 24 97.5 24z" />
    <glyph glyph-name="Otilde" unicode="&#xd5;" horiz-adv-x="469" 
d="M271 830c-9.33301 0 -22.334 6.33398 -39.001 19.001c-17.333 17.333 -31 25.666 -41 24.999c-18.667 0.666992 -28 -13 -28 -41c-1.33301 -2 -4.33301 -2.66699 -9 -2c-4 0.666992 -6.33301 0.666992 -7 0c-4.66699 17.333 -5 36.333 -1 57
c6 15.333 13.667 25.333 23 30c4 2 12 3 24 3c10 0 23.5 -7.16699 40.5 -21.5s29.167 -21.5 36.5 -21.5c19.333 0 29 12 29 36h15c8 -22.667 8 -44 0 -64c-7.33301 -13.333 -21.666 -20 -42.999 -20zM231.999 93.001c28 -0.666992 46.998 9.66699 56.998 31
c19.333 44 31 124 35 240v46c0 22.667 -0.333008 39.667 -1 51c-6 104.667 -17 174.667 -33 210c-11.333 23.333 -30.666 35 -57.999 35s-46.666 -11.333 -57.999 -34c-16 -38.667 -27 -109 -33 -211c-0.666992 -12 -1 -29.667 -1 -53v-44
c2.66699 -114.667 15 -194.667 37 -240c10 -20.667 28.333 -31 55 -31zM231.997 805.002c79.333 0 132.001 -29.334 158.001 -88.001c26.667 -63.333 40 -174 40 -332c0 -25.333 -0.666992 -47 -2 -65c-6.66699 -79.333 -10 -119.333 -10 -120
c-6.66699 -51.333 -16.334 -90.666 -29.001 -117.999c-30.667 -58.667 -83 -88 -157 -88c-76 0 -127.667 29.667 -155 89c-16.667 33.333 -29 108 -37 224c-2.66699 40 -4 75.667 -4 107c0 138.667 13 239.667 39 303c12 26.667 31.833 48 59.5 64s60.167 24 97.5 24z" />
    <glyph glyph-name="Odieresis" unicode="&#xd6;" horiz-adv-x="463" 
d="M106 901c0 14.667 5 27 15 37s22.333 15 37 15s27 -5 37 -15s15 -22.333 15 -37s-5 -27 -15 -37s-22.333 -15 -37 -15s-27 5 -37 15s-15 22.333 -15 37zM256 901c0 14.667 5 27 15 37s22.333 15 37 15s27 -5 37 -15s15 -22.333 15 -37s-5 -27 -15 -37
s-22.333 -15 -37 -15s-27 5 -37 15s-15 22.333 -15 37zM232 93c28 -0.666992 46.998 9.66699 56.998 31c19.333 44 31 124 35 240v46c0 22.667 -0.333008 39.667 -1 51c-6 104.667 -17 174.667 -33 210c-11.333 23.333 -30.666 35 -57.999 35s-46.666 -11.333 -57.999 -34
c-16 -38.667 -27 -109 -33 -211c-0.666992 -12 -1 -29.667 -1 -53v-44c2.66699 -114.667 15 -194.667 37 -240c10 -20.667 28.333 -31 55 -31zM231.998 805.001c79.333 0 132.001 -29.334 158.001 -88.001c26.667 -63.333 40 -174 40 -332c0 -25.333 -0.666992 -47 -2 -65
c-6.66699 -79.333 -10 -119.333 -10 -120c-6.66699 -51.333 -16.334 -90.666 -29.001 -117.999c-30.667 -58.667 -83 -88 -157 -88c-76 0 -127.667 29.667 -155 89c-16.667 33.333 -29 108 -37 224c-2.66699 40 -4 75.667 -4 107c0 138.667 13 239.667 39 303
c12 26.667 31.833 48 59.5 64s60.167 24 97.5 24z" />
    <glyph glyph-name="multiply" unicode="&#xd7;" horiz-adv-x="447" 
d="M317 251l-96 96l-96 -96l-63 63l96 95l-96 96l63 63l96 -96l96 96l63 -63l-96 -96l96 -95z" />
    <glyph glyph-name="Oslash" unicode="&#xd8;" horiz-adv-x="463" 
d="M311 598l-106 -490c8.66699 -6 18.667 -9 30 -9c37.333 0 62.333 33 75 99c2 12 6.66699 67.333 14 166c0.666992 9.33301 1 24.666 1 45.999c0 12 -0.666992 29 -2 51c-1.33301 30.667 -5.33301 76.334 -12 137.001zM155 213l105 484.999c-8.66699 4.66699 -18 7 -28 7
c-38 0 -63.333 -29.667 -76 -89c-4.66699 -20.667 -9.66699 -72.334 -15 -155.001c-1.33301 -22 -2 -39 -2 -51c0 -21.333 0.333008 -36.666 1 -45.999c1.33301 -33.333 6.33301 -83.666 15 -150.999zM168 -62.001l-72.9971 -0.00488281l22 101
c-27.333 28.667 -47 68.667 -59 120c-7.33301 32 -13.333 81.333 -18 148c-2.66699 34 -4 66.333 -4 97c-0.666992 29.333 -0.333984 56.333 0.999023 81c6 138 34.333 232.333 85 283c22 22.667 52.667 36 92 40c6.66699 0.666992 12.667 1 18 1c4 0 10 -0.333008 18 -1
c11.333 -1.33301 22.333 -3.66602 33 -6.99902l14 68h73l-23 -104c29.333 -38 50.333 -80 63 -126c9.33301 -37.333 15.666 -88.666 18.999 -153.999c0 -4.66699 0.333008 -31.667 1 -81c0.666992 -35.333 0 -63.333 -2 -84
c-6.66699 -71.333 -14.334 -124.666 -23.001 -159.999c-14.667 -58 -37 -101.333 -67 -130c-30 -23.333 -57.333 -35.666 -82 -36.999c-12 -1.33301 -20 -1.66602 -24 -0.999023c-4 -0.666992 -12 -0.333984 -24 0.999023c-7.33301 0.666992 -16.333 2.33398 -27 5.00098z
" />
    <glyph glyph-name="Ugrave" unicode="&#xd9;" horiz-adv-x="408" 
d="M205 -7c-64.667 0 -113 25 -145 75c-20.667 32 -31 91.667 -31 179v553h103v-606c0 -65.333 24.333 -98.333 73 -99c45.333 0 68 33 68 99v606h103v-550c0 -88.667 -11 -149 -33 -181c-20.667 -29.333 -41.167 -49.333 -61.5 -60s-45.833 -16 -76.5 -16zM225 848h83
l-113 123l-102 -1z" />
    <glyph glyph-name="Uacute" unicode="&#xda;" horiz-adv-x="408" 
d="M205 -7c-64.667 0 -113 25 -145 75c-20.667 32 -31 91.667 -31 179v553h103v-606c0 -65.333 24.333 -98.333 73 -99c45.333 0 68 33 68 99v606h103v-550c0 -88.667 -11 -149 -33 -181c-20.667 -29.333 -41.167 -49.333 -61.5 -60s-45.833 -16 -76.5 -16zM186 848h-83
l113 123l102 -1z" />
    <glyph glyph-name="Ucircumflex" unicode="&#xdb;" horiz-adv-x="408" 
d="M205 -7c-64.667 0 -113 25 -145 75c-20.667 32 -31 91.667 -31 179v553h103v-606c0 -65.333 24.333 -98.333 73 -99c45.333 0 68 33 68 99v606h103v-550c0 -88.667 -11 -149 -33 -181c-20.667 -29.333 -41.167 -49.333 -61.5 -60s-45.833 -16 -76.5 -16zM210 883l-40 -50
h-62l75 97h55l75 -97h-62z" />
    <glyph glyph-name="Udieresis" unicode="&#xdc;" horiz-adv-x="408" 
d="M205 -7c-64.667 0 -113 25.001 -145 75.001c-20.667 32 -31 91.667 -31 179v553h103v-596c0 -68.667 24.333 -103.334 73 -104.001c45.333 0 68 34.667 68 104v596h103v-550c0 -88.667 -11 -149 -33 -181c-20.667 -29.333 -41.167 -49.333 -61.5 -60
s-45.833 -16 -76.5 -16zM76 901.001c0 14.667 5 27 15 37s22.333 15 37 15s27 -5 37 -15s15 -22.333 15 -37s-5 -27 -15 -37s-22.333 -15 -37 -15s-27 5 -37 15s-15 22.333 -15 37zM226 901.001c0 14.667 5 27 15 37s22.333 15 37 15s27 -5 37 -15s15 -22.333 15 -37
s-5 -27 -15 -37s-22.333 -15 -37 -15s-27 5 -37 15s-15 22.333 -15 37z" />
    <glyph glyph-name="Yacute" unicode="&#xdd;" horiz-adv-x="460" 
d="M282 0h-106v353l-163 447h110l105 -301l107 301h111l-164 -445v-355zM206 848h-83l113 123l102 -1z" />
    <glyph glyph-name="Thorn" unicode="&#xde;" horiz-adv-x="438" 
d="M33 0v800h102v-160h100c37.333 0 71 -9 101 -27c52 -37.333 78 -101.333 78 -192c0 -44 -9 -85 -27 -123c-16 -32.667 -33 -53.667 -51 -63c-28.667 -14.667 -59.667 -22 -93 -22h-107l-1 -213h-102zM136 306h91c50.667 0 76 40 76 120c0 80.667 -25.333 121 -76 121h-91
v-241z" />
    <glyph glyph-name="germandbls" unicode="&#xdf;" horiz-adv-x="302" 
d="M24 703c0 92.667 39.6689 139 119.002 139c26 0 49.333 -7.33301 70 -22c18 -12.667 30.167 -28 36.5 -46s9.5 -34.667 9.5 -50c0 -20 -4.66699 -38.333 -14 -55s-20 -28 -32 -34c43.333 -8 65 -42.333 65 -103c0 -44 -7.33301 -77 -22 -99s-37.334 -33 -68.001 -33h-43
v66h31c26 0 38.667 23.333 38 70c0 22 -6.33301 38.667 -19 50c-9.33301 8.66699 -20.333 13 -33 13h-16v61c20.667 0 35.667 6.33301 45 19c6 8 9 21.667 9 41c0 20.667 -6.33301 37 -19 49c-10.667 10 -23.334 15 -38.001 15c-40 0 -60 -25 -60 -75v-309h-59v303z" />
    <glyph glyph-name="agrave" unicode="&#xe0;" 
d="M244 833h-58l-92 85l71 1zM267 400l-28 94h-125l-28 -94h-69l124 400h73l123 -400h-70zM177 694l-45 -140h88z" />
    <glyph glyph-name="aacute" unicode="&#xe1;" 
d="M264 918l-92 -85h-58l79 86zM267 400l-28 94h-125l-28 -94h-69l124 400h73l123 -400h-70zM177 694l-45 -140h88z" />
    <glyph glyph-name="acircumflex" unicode="&#xe2;" 
d="M258 829h-48l-31 38l-31 -38h-48l58 74h42zM267 400l-28 94h-125l-28 -94h-69l124 400h73l123 -400h-70zM177 694l-45 -140h88z" />
    <glyph glyph-name="atilde" unicode="&#xe3;" 
d="M267 400l-28 94h-125l-28 -94h-69l124 400h73l123 -400h-70zM177 694l-45 -140h88zM203 834c-6.66699 0 -16.002 4.33203 -28.002 12.999c-11.333 12 -20.666 17.667 -27.999 17c-13.333 0.666992 -20 -9 -20 -29c-3.33301 0.666992 -7 0.333984 -11 -0.999023
c-3.33301 12 -3.66602 25.333 -0.999023 40c6 15.333 17 23 33 23c7.33301 0 16.833 -5 28.5 -15s20.167 -15 25.5 -15c13.333 0 20 8.33301 20 25h11c5.33301 -15.333 5.33301 -30 0 -44c-5.33301 -9.33301 -15.333 -14 -30 -14z" />
    <glyph glyph-name="adieresis" unicode="&#xe4;" 
d="M272 871c0 -10 -3.5 -18.5 -10.5 -25.5s-15.5 -10.5 -25.5 -10.5c-10.667 0 -19.5 3.5 -26.5 10.5s-10.5 15.5 -10.5 25.5s3.5 18.5 10.5 25.5s15.833 10.5 26.5 10.5c10 0 18.5 -3.5 25.5 -10.5s10.5 -15.5 10.5 -25.5zM167 871c0 -10 -3.5 -18.5 -10.5 -25.5
s-15.5 -10.5 -25.5 -10.5c-10.667 0 -19.5 3.5 -26.5 10.5s-10.5 15.5 -10.5 25.5s3.5 18.5 10.5 25.5s15.833 10.5 26.5 10.5c10 0 18.5 -3.5 25.5 -10.5s10.5 -15.5 10.5 -25.5zM267 400l-28 94h-125l-28 -94h-69l124 400h73l123 -400h-70zM177 694l-45 -140h88z" />
    <glyph glyph-name="aring" unicode="&#xe5;" 
d="M267 400l-28 94h-125l-28 -94h-69l124 400h73l123 -400h-70zM177 694l-45 -140h88zM179 835c-14.667 0 -27.167 5.5 -37.5 16.5s-15.5 25.167 -15.5 42.5c0 18 5 32.333 15 43s22.667 16 38 16c34.667 0 52 -19.667 52 -59c0 -18 -4.83301 -32.333 -14.5 -43
s-22.167 -16 -37.5 -16zM179 930c-19.333 0 -29 -12 -29 -36c0 -25.333 9.66699 -38 29 -38s29 12.667 29 38c0 24 -9.66699 36 -29 36z" />
    <glyph glyph-name="ae" unicode="&#xe6;" horiz-adv-x="408" 
d="M220 554l-43 140l-45 -140h88zM144 800h246v-59h-158l32 -103h117v-60h-99l37 -119h69v-59h-121l-29 94h-124l-28 -94h-69l124 400h3z" />
    <glyph glyph-name="ccedilla" unicode="&#xe7;" horiz-adv-x="317" 
d="M177 395l-0.00292969 -31.9971c33.333 0 50 -17.333 50 -52c0 -18 -6.16699 -32.167 -18.5 -42.5s-26.5 -15.5 -42.5 -15.5h-5c-13.333 0 -23.333 3 -30 9l12 30c10 -3.33301 15.667 -5 17 -5c20 0 30 7.33301 30 22c0 16.667 -9.66699 25 -29 25c-6 0 -13 -1 -21 -3v67
c-31.333 7.33301 -57.666 25.333 -78.999 54c-27.333 37.333 -41 86.666 -41 147.999c0 63.333 13.333 113.166 40 149.499s64.334 54.5 113.001 54.5c53.333 0 91.666 -26.667 114.999 -80l-60 -22c-11.333 24 -29.666 36 -54.999 36c-34 0 -57.333 -19 -70 -57
c-7.33301 -23.333 -11 -50.333 -11 -81c0 -62.667 15.333 -105.334 46 -128.001c10 -7.33301 22 -11 36 -11c26.667 0 46.334 17.667 59.001 53l64 -22c-20.667 -64 -60.667 -96.333 -120 -97z" />
    <glyph glyph-name="egrave" unicode="&#xe8;" horiz-adv-x="276" 
d="M24 800h231v-59h-164v-103h119v-59h-119v-120h174v-59h-241v400zM154 833h58l-79 86l-71 -1z" />
    <glyph glyph-name="eacute" unicode="&#xe9;" horiz-adv-x="276" 
d="M24 800h231v-59h-164v-103h119v-59h-119v-120h174v-59h-241v400zM142 833h-58l79 86l71 -1z" />
    <glyph glyph-name="ecircumflex" unicode="&#xea;" horiz-adv-x="276" 
d="M24 800h231v-59h-164v-103h119v-59h-119v-120h174v-59h-241v400zM143 867l-31 -38h-48l58 74h42l58 -74h-48z" />
    <glyph glyph-name="edieresis" unicode="&#xeb;" horiz-adv-x="276" 
d="M24 800h231v-59h-164v-103h119v-59h-119v-120h174v-59h-241v400zM57 871c0 10 3.5 18.5 10.5 25.5s15.833 10.5 26.5 10.5c10 0 18.5 -3.5 25.5 -10.5s10.5 -15.5 10.5 -25.5s-3.5 -18.5 -10.5 -25.5s-15.5 -10.5 -25.5 -10.5c-10.667 0 -19.5 3.5 -26.5 10.5
s-10.5 15.5 -10.5 25.5zM162 871c0 10 3.5 18.5 10.5 25.5s15.5 10.5 25.5 10.5c10.667 0 19.5 -3.5 26.5 -10.5s10.5 -15.5 10.5 -25.5s-3.5 -18.5 -10.5 -25.5s-15.833 -10.5 -26.5 -10.5c-10 0 -18.5 3.5 -25.5 10.5s-10.5 15.5 -10.5 25.5z" />
    <glyph glyph-name="igrave" unicode="&#xec;" horiz-adv-x="149" 
d="M40 800h72v-401h-72v401zM94 833h58l-79 86l-71 -1z" />
    <glyph glyph-name="iacute" unicode="&#xed;" horiz-adv-x="149" 
d="M40 800h72v-401h-72v401zM62 833h-58l79 86l71 -1z" />
    <glyph glyph-name="icircumflex" unicode="&#xee;" horiz-adv-x="149" 
d="M40 800h72v-401h-72v401zM80 867l-31 -38h-48l58 74h42l58 -74h-48z" />
    <glyph glyph-name="idieresis" unicode="&#xef;" horiz-adv-x="149" 
d="M40 800h72v-401h-72v401zM165 871c0 -10 -3.5 -18.5 -10.5 -25.5s-15.5 -10.5 -25.5 -10.5c-10.667 0 -19.5 3.5 -26.5 10.5s-10.5 15.5 -10.5 25.5s3.5 18.5 10.5 25.5s15.833 10.5 26.5 10.5c10 0 18.5 -3.5 25.5 -10.5s10.5 -15.5 10.5 -25.5zM60 871
c0 -10 -3.5 -18.5 -10.5 -25.5s-15.5 -10.5 -25.5 -10.5c-10.667 0 -19.5 3.5 -26.5 10.5s-10.5 15.5 -10.5 25.5s3.5 18.5 10.5 25.5s15.833 10.5 26.5 10.5c10 0 18.5 -3.5 25.5 -10.5s10.5 -15.5 10.5 -25.5z" />
    <glyph glyph-name="eth" unicode="&#xf0;" horiz-adv-x="339" 
d="M99 629h25v-61h-25v-107h42c34.667 0 61 15 79 45c14.667 25.333 22 57 22 95c0 93.333 -33.667 140 -101 140h-42v-112zM4 629l28 -0.000976562v171h120c53.333 0 94.333 -20 123 -60c26 -35.333 39 -81.333 39 -138c0 -59.333 -13 -106.666 -39 -141.999
c-28 -40 -70 -60 -126 -60h-117v168h-28v61z" />
    <glyph glyph-name="ntilde" unicode="&#xf1;" horiz-adv-x="334" 
d="M101 669v-269h-68v400h78l123 -264v264h67v-400h-74zM198 834c-6.66699 0 -16.002 4.33203 -28.002 12.999c-11.333 12 -20.666 17.667 -27.999 17c-13.333 0.666992 -20 -9 -20 -29c-3.33301 0.666992 -7 0.333984 -11 -0.999023
c-3.33301 12 -3.66602 25.333 -0.999023 40c6 15.333 17 23 33 23c7.33301 0 16.833 -5 28.5 -15s20.167 -15 25.5 -15c13.333 0 20 8.33301 20 25h11c5.33301 -15.333 5.33301 -30 0 -44c-5.33301 -9.33301 -15.333 -14 -30 -14z" />
    <glyph glyph-name="ograve" unicode="&#xf2;" horiz-adv-x="343" 
d="M171 396c-100.667 0 -151 68 -151 204c0 135.333 50.333 203 151 203c100 0 150 -67.667 150 -203c0 -136 -50 -204 -150 -204zM171 743c-55.333 0 -83 -47.667 -83 -143s27.667 -143 83 -143c54.667 0 82 47.667 82 143s-27.333 143 -82 143zM186 833h58l-79 86l-71 -1z
" />
    <glyph glyph-name="oacute" unicode="&#xf3;" horiz-adv-x="343" 
d="M171 396c-100.667 0 -151 68 -151 204c0 135.333 50.333 203 151 203c100 0 150 -67.667 150 -203c0 -136 -50 -204 -150 -204zM171 743c-55.333 0 -83 -47.667 -83 -143s27.667 -143 83 -143c54.667 0 82 47.667 82 143s-27.333 143 -82 143zM172 833h-58l79 86l71 -1z
" />
    <glyph glyph-name="ocircumflex" unicode="&#xf4;" horiz-adv-x="343" 
d="M171 396c-100.667 0 -151 68 -151 204c0 135.333 50.333 203 151 203c100 0 150 -67.667 150 -203c0 -136 -50 -204 -150 -204zM171 743c-55.333 0 -83 -47.667 -83 -143s27.667 -143 83 -143c54.667 0 82 47.667 82 143s-27.333 143 -82 143zM169 867l-31 -38h-48l58 74
h42l58 -74h-48z" />
    <glyph glyph-name="otilde" unicode="&#xf5;" horiz-adv-x="343" 
d="M171 396c-100.667 0 -151 68 -151 204c0 135.333 50.333 203 151 203c100 0 150 -67.667 150 -203c0 -136 -50 -204 -150 -204zM171 743c-55.333 0 -83 -47.667 -83 -143s27.667 -143 83 -143c54.667 0 82 47.667 82 143s-27.333 143 -82 143zM203 834
c-6.66699 0 -16.002 4.33203 -28.002 12.999c-11.333 12 -20.666 17.667 -27.999 17c-13.333 0.666992 -20 -9 -20 -29c-3.33301 0.666992 -7 0.333984 -11 -0.999023c-3.33301 12 -3.66602 25.333 -0.999023 40c6 15.333 17 23 33 23c7.33301 0 16.833 -5 28.5 -15
s20.167 -15 25.5 -15c13.333 0 20 8.33301 20 25h11c5.33301 -15.333 5.33301 -30 0 -44c-5.33301 -9.33301 -15.333 -14 -30 -14z" />
    <glyph glyph-name="odieresis" unicode="&#xf6;" horiz-adv-x="343" 
d="M171 396c-100.667 0 -151 68 -151 204c0 135.333 50.333 203 151 203c100 0 150 -67.667 150 -203c0 -136 -50 -204 -150 -204zM171 743c-55.333 0 -83 -47.667 -83 -143s27.667 -143 83 -143c54.667 0 82 47.667 82 143s-27.333 143 -82 143zM84 871
c0 10 3.5 18.5 10.5 25.5s15.833 10.5 26.5 10.5c10 0 18.5 -3.5 25.5 -10.5s10.5 -15.5 10.5 -25.5s-3.5 -18.5 -10.5 -25.5s-15.5 -10.5 -25.5 -10.5c-10.667 0 -19.5 3.5 -26.5 10.5s-10.5 15.5 -10.5 25.5zM189 871c0 10 3.5 18.5 10.5 25.5s15.5 10.5 25.5 10.5
c10.667 0 19.5 -3.5 26.5 -10.5s10.5 -15.5 10.5 -25.5s-3.5 -18.5 -10.5 -25.5s-15.833 -10.5 -26.5 -10.5c-10 0 -18.5 3.5 -25.5 10.5s-10.5 15.5 -10.5 25.5z" />
    <glyph glyph-name="divide" unicode="&#xf7;" horiz-adv-x="444" 
d="M41 454h360v-89h-360v89zM170 230c0 14.667 5 27 15 37s22.333 15 37 15s27 -5 37 -15s15 -22.333 15 -37s-5 -27 -15 -37s-22.333 -15 -37 -15s-27 5 -37 15s-15 22.333 -15 37zM170 590c0 14.667 5 27 15 37s22.333 15 37 15s27 -5 37 -15s15 -22.333 15 -37
s-5 -27 -15 -37s-22.333 -15 -37 -15s-27 5 -37 15s-15 22.333 -15 37z" />
    <glyph glyph-name="oslash" unicode="&#xf8;" horiz-adv-x="343" 
d="M219 725l-57 -267.001c3.33301 -0.666992 6.33301 -1 9 -1c54.667 0 82 47.667 82 143c0 60.667 -11.333 102.334 -34 125.001zM125 473.999l57 269h-11c-55.333 0 -83 -47.667 -83 -143c0 -62 12.333 -104 37 -126zM102 363.999l8.99902 43.001
c-60.667 23.333 -91 87.666 -91 192.999c0 135.333 50.333 203 151 203c8.66699 0 16.667 -0.333008 24 -1l8 37h40l-10 -47c58.667 -24 88 -88 88 -192c0 -136 -50 -204 -150 -204c-7.33301 0 -14.666 0.333008 -21.999 1l-7 -33h-40z" />
    <glyph glyph-name="ugrave" unicode="&#xf9;" horiz-adv-x="311" 
d="M159 399c-45.333 0 -79.667 15.667 -103 47c-21.333 28.667 -32 66 -32 112v242h68v-256c0 -57.333 22.333 -86 67 -86c40.667 0 61 28.667 61 86v256h68v-241c0 -106.667 -43 -160 -129 -160zM153.999 833h58l-79 86l-71 -1z" />
    <glyph glyph-name="uacute" unicode="&#xfa;" horiz-adv-x="311" 
d="M159 399c-45.333 0 -79.667 15.667 -103 47c-21.333 28.667 -32 66 -32 112v242h68v-256c0 -57.333 22.333 -86 67 -86c40.667 0 61 28.667 61 86v256h68v-241c0 -106.667 -43 -160 -129 -160zM141.999 833h-58l79 86l71 -1z" />
    <glyph glyph-name="ucircumflex" unicode="&#xfb;" horiz-adv-x="311" 
d="M159 399c-45.333 0 -79.667 15.667 -103 47c-21.333 28.667 -32 66 -32 112v242h68v-256c0 -57.333 22.333 -86 67 -86c40.667 0 61 28.667 61 86v256h68v-241c0 -106.667 -43 -160 -129 -160zM229.999 829h-48l-31 38l-31 -38h-48l58 74h42z" />
    <glyph glyph-name="udieresis" unicode="&#xfc;" horiz-adv-x="311" 
d="M159 399c-45.333 0 -79.667 15.667 -103 47c-21.333 28.667 -32 66 -32 112v242h68v-256c0 -57.333 22.333 -86 67 -86c40.667 0 61 28.667 61 86v256h68v-241c0 -106.667 -43 -160 -129 -160zM74.999 871c0 10 3.5 18.5 10.5 25.5s15.833 10.5 26.5 10.5
c10 0 18.5 -3.5 25.5 -10.5s10.5 -15.5 10.5 -25.5s-3.5 -18.5 -10.5 -25.5s-15.5 -10.5 -25.5 -10.5c-10.667 0 -19.5 3.5 -26.5 10.5s-10.5 15.5 -10.5 25.5zM179.999 871c0 10 3.5 18.5 10.5 25.5s15.5 10.5 25.5 10.5c10.667 0 19.5 -3.5 26.5 -10.5
s10.5 -15.5 10.5 -25.5s-3.5 -18.5 -10.5 -25.5s-15.833 -10.5 -26.5 -10.5c-10 0 -18.5 3.5 -25.5 10.5s-10.5 15.5 -10.5 25.5z" />
    <glyph glyph-name="yacute" unicode="&#xfd;" horiz-adv-x="332" 
d="M200 566v-166h-67v167l-119 233h71l82 -159l81 159h71zM152 833h-58l79 86l71 -1z" />
    <glyph glyph-name="thorn" unicode="&#xfe;" horiz-adv-x="322" 
d="M100 658v-114h83c32 0 48 18.333 48 55c0 39.333 -16 59 -48 59h-83zM100 485v-85h-67v400h67v-83h84c36 0 64.5 -11.333 85.5 -34s31.5 -50 31.5 -82c0 -33.333 -10.667 -61 -32 -83s-51.333 -33 -90 -33h-79z" />
    <glyph glyph-name="ydieresis" unicode="&#xff;" horiz-adv-x="332" 
d="M200 566v-166h-67v167l-119 233h71l82 -159l81 159h71zM77 871c0 10 3.5 18.5 10.5 25.5s15.833 10.5 26.5 10.5c10 0 18.5 -3.5 25.5 -10.5s10.5 -15.5 10.5 -25.5s-3.5 -18.5 -10.5 -25.5s-15.5 -10.5 -25.5 -10.5c-10.667 0 -19.5 3.5 -26.5 10.5
s-10.5 15.5 -10.5 25.5zM182 871c0 10 3.5 18.5 10.5 25.5s15.5 10.5 25.5 10.5c10.667 0 19.5 -3.5 26.5 -10.5s10.5 -15.5 10.5 -25.5s-3.5 -18.5 -10.5 -25.5s-15.833 -10.5 -26.5 -10.5c-10 0 -18.5 3.5 -25.5 10.5s-10.5 15.5 -10.5 25.5z" />
    <glyph glyph-name="dotlessi" unicode="&#x131;" horiz-adv-x="149" 
d="M40 800h72v-401h-72v401z" />
    <glyph glyph-name="Lslash" unicode="&#x141;" horiz-adv-x="382" 
d="M33 800h103v-345h28v-91h-28v-272h230v-92h-333v364h-29v91h29v345z" />
    <glyph glyph-name="lslash" unicode="&#x142;" horiz-adv-x="270" 
d="M5 629h30v171h67v-171h32v-61h-32v-110h156v-59h-223v169h-30v61z" />
    <glyph glyph-name="OE" unicode="&#x152;" horiz-adv-x="661" 
d="M323 800h306.999v-93h-204l-1 -231h119v-93h-119l1 -290h214v-93h-317v14c-25.333 -13.333 -55.666 -20 -90.999 -20c-75.333 0 -127 29.667 -155 89c-16.667 34 -29 108.667 -37 224c-2.66699 40 -4 75.667 -4 107c0 140.667 13 241.667 39 303
c11.333 26.667 31 48 59 64s60.667 24 98 24c34.667 0 65 -6.33301 91 -19v14zM322.999 342v119.001c-6 104.667 -17 174.667 -33 210c-10.667 23.333 -30 35 -58 35c-28.667 0 -48 -11.333 -58 -34c-16 -36.667 -27 -107 -33 -211c-0.666992 -12 -1 -29.667 -1 -53v-44
c2.66699 -114.667 15 -194.667 37 -240c10 -20.667 28.333 -31 55 -31c28.667 -0.666992 47.667 9.66602 57 30.999c22.667 49.333 34 122 34 218z" />
    <glyph glyph-name="oe" unicode="&#x153;" horiz-adv-x="482" 
d="M171 743c-55.333 0 -83 -47.667 -83 -143s27.667 -143 83 -143c54.667 0 82 47.667 82 143s-27.333 143 -82 143zM254 800h201v-59h-134v-103h89v-59h-89v-120h144v-59h-211v18c-22 -14.667 -49.667 -22 -83 -22c-100.667 0 -151 68 -151 204
c0 135.333 50.333 203 151 203c33.333 0 61 -7.33301 83 -22v19z" />
    <glyph glyph-name="Scaron" unicode="&#x160;" horiz-adv-x="404" 
d="M132 636c0 46.667 22.998 70 68.998 70c42.667 0 66.334 -25.333 71.001 -76h101c-3.33301 49.333 -17.666 89.333 -42.999 120c-30 37.333 -72 56 -126 56c-60.667 0 -106 -17 -136 -51c-25.333 -29.333 -38 -68.333 -38 -117c0 -83.333 47 -172 141 -266
c32 -33.333 55 -62.333 69 -87c17.333 -32 26 -67 26 -105c0 -56 -22.667 -84 -68 -84c-19.333 0 -35.333 8.66699 -48 26s-19 39.333 -19 66h-107c1.33301 -56.667 16.333 -102.667 45 -138c29.333 -37.333 69 -56 119 -56c60.667 0 108 18.667 142 56
c30 33.333 45 74 45 122c0 48.667 -7.66699 90.667 -23 126c-20.667 46 -60 99 -118 159c-31.333 32 -53.333 57.667 -66 77c-24 34.667 -36 68.667 -36 102zM203.998 880l-40 50h-62l75 -97h55l75 97h-62z" />
    <glyph glyph-name="scaron" unicode="&#x161;" horiz-adv-x="305" 
d="M150 396c-24.667 0 -49.668 8.33301 -75.001 25c-28.667 18.667 -46.334 43 -53.001 73l62 20c3.33301 -12 11.833 -23.667 25.5 -35s29.834 -17 48.501 -17c42 0 63 14.333 63 43c0 26.667 -15.333 47.334 -46 62.001c-25.333 9.33301 -61 25.666 -107 48.999
c-32 20.667 -48 50.667 -48 90c0 31.333 11.333 55.333 34 72s55 25 97 25c64.667 0 106.334 -26.333 125.001 -79l-59 -20c-5.33301 13.333 -14.833 23.5 -28.5 30.5s-26.834 10.5 -39.501 10.5c-43.333 0 -64.666 -13.333 -63.999 -40c0 -18.667 12 -34 36 -46
c6.66699 -3.33301 40.334 -18.333 101.001 -45c44 -18.667 66 -56 66 -112c0 -30 -12.833 -55.167 -38.5 -75.5s-58.834 -30.5 -99.501 -30.5zM232.999 903h-48l-31 -38l-31 38h-48l58 -74h42z" />
    <glyph glyph-name="Ydieresis" unicode="&#x178;" horiz-adv-x="460" 
d="M282 0h-106v353l-163 447h110l105 -301l107 301h111l-164 -445v-355zM106 901c0 14.667 5 27 15 37s22.333 15 37 15s27 -5 37 -15s15 -22.333 15 -37s-5 -27 -15 -37s-22.333 -15 -37 -15s-27 5 -37 15s-15 22.333 -15 37zM256 901c0 14.667 5 27 15 37s22.333 15 37 15
s27 -5 37 -15s15 -22.333 15 -37s-5 -27 -15 -37s-22.333 -15 -37 -15s-27 5 -37 15s-15 22.333 -15 37z" />
    <glyph glyph-name="Zcaron" unicode="&#x17d;" 
d="M29 96l191 610h-191v94h298v-96l-192 -611h193v-93h-299v96zM181 880l-40 50h-62l75 -97h55l75 97h-62z" />
    <glyph glyph-name="zcaron" unicode="&#x17e;" horiz-adv-x="286" 
d="M22 460l168 279h-168v60h244v-65l-169 -277h170v-59h-245v62zM225 903h-48l-31 -38l-31 38h-48l58 -74h42z" />
    <glyph glyph-name="circumflex" unicode="&#x2c6;" horiz-adv-x="370" 
d="M171 883l-40 -50h-62l75 97h55l75 -97h-62z" />
    <glyph glyph-name="caron" unicode="&#x2c7;" horiz-adv-x="370" 
d="M171 880l-40 50h-62l75 -97h55l75 97h-62z" />
    <glyph glyph-name="dotaccent" unicode="&#x2d9;" horiz-adv-x="149" 
d="M126 891c0 -14.667 -5.16699 -27 -15.5 -37s-22.5 -15 -36.5 -15c-14.667 0 -27.167 5 -37.5 15s-15.5 22.333 -15.5 37s5.16699 27 15.5 37s22.833 15 37.5 15c14 0 26.167 -5 36.5 -15s15.5 -22.333 15.5 -37z" />
    <glyph glyph-name="ring" unicode="&#x2da;" horiz-adv-x="455" 
d="M227 1021c-20 0 -30 -20.668 -30 -62.001c0 -40.667 10 -61 30 -61c10 0 18.333 8 25 24c4.66699 12 7 24.333 7 37s-2.33301 25.334 -7 38.001c-6.66699 16 -15 24 -25 24zM227 855.999c-22.667 0 -40.667 12 -54 36c-11.333 20 -17 42.333 -17 67c0 26 5 48.667 15 68
c13.333 24 32 36 56 36c23.333 0 41.666 -12 54.999 -36c11.333 -19.333 17 -42 17 -68c0 -42.667 -14.667 -74 -44 -94c-9.33301 -6 -18.666 -9 -27.999 -9z" />
    <glyph glyph-name="tilde" unicode="&#x2dc;" horiz-adv-x="414" 
d="M251 830c-9.33301 0 -22.334 6.33398 -39.001 19.001c-17.333 17.333 -31 25.666 -41 24.999c-18.667 0.666992 -28 -13 -28 -41c-1.33301 -2 -4.33301 -2.66699 -9 -2c-4 0.666992 -6.33301 0.666992 -7 0c-4.66699 17.333 -5 36.333 -1 57
c6 15.333 13.667 25.333 23 30c4 2 12 3 24 3c10 0 23.5 -7.16699 40.5 -21.5s29.167 -21.5 36.5 -21.5c19.333 0 29 12 29 36h15c8 -22.667 8 -44 0 -64c-7.33301 -13.333 -21.666 -20 -42.999 -20z" />
    <glyph glyph-name="endash" unicode="&#x2013;" horiz-adv-x="234" 
d="M31 639h160v-71h-160v71z" />
    <glyph glyph-name="emdash" unicode="&#x2014;" horiz-adv-x="444" 
d="M41 454h360v-89h-360v89z" />
    <glyph glyph-name="quoteleft" unicode="&#x2018;" horiz-adv-x="226" 
d="M155 726c0 -14.667 -4.99805 -26.999 -14.998 -36.999s-22.333 -15 -37 -15c-30.667 0 -48.334 17.333 -53.001 52c-1.33301 8 -1.33301 17.667 0 29c3.33301 23.333 13.666 43.666 30.999 60.999s39 29.333 65 36v-31c-24 -8.66699 -38.333 -23 -43 -43
c14.667 0 27 -5 37 -15s15 -22.333 15 -37z" />
    <glyph glyph-name="quoteright" unicode="&#x2019;" horiz-adv-x="226" 
d="M50 800c0 14.667 4.99805 26.999 14.998 36.999s22.333 15 37 15c30.667 0 48.334 -17.333 53.001 -52c1.33301 -8 1.33301 -17.667 0 -29c-3.33301 -23.333 -13.666 -43.666 -30.999 -60.999s-39 -29.333 -65 -36v31c24 8.66699 38.333 23 43 43c-14.667 0 -27 5 -37 15
s-15 22.333 -15 37z" />
    <glyph glyph-name="quotedblleft" unicode="&#x201c;" horiz-adv-x="371" 
d="M315 726c0 -14.667 -4.99805 -26.999 -14.998 -36.999s-22.333 -15 -37 -15c-30.667 0 -48.334 17.333 -53.001 52c-1.33301 8 -1.33301 17.667 0 29c3.33301 23.333 13.666 43.666 30.999 60.999s39 29.333 65 36v-31c-24 -8.66699 -38.333 -23 -43 -43
c14.667 0 27 -5 37 -15s15 -22.333 15 -37zM155.002 726.001c0 -14.667 -4.99805 -26.999 -14.998 -36.999s-22.333 -15 -37 -15c-30.667 0 -48.334 17.333 -53.001 52c-1.33301 8 -1.33301 17.667 0 29c3.33301 23.333 13.666 43.666 30.999 60.999s39 29.333 65 36v-31
c-24 -8.66699 -38.333 -23 -43 -43c14.667 0 27 -5 37 -15s15 -22.333 15 -37z" />
    <glyph glyph-name="quotedblright" unicode="&#x201d;" horiz-adv-x="371" 
d="M50 800c0 14.667 4.99805 26.999 14.998 36.999s22.333 15 37 15c30.667 0 48.334 -17.333 53.001 -52c1.33301 -8 1.33301 -17.667 0 -29c-3.33301 -23.333 -13.666 -43.666 -30.999 -60.999s-39 -29.333 -65 -36v31c24 8.66699 38.333 23 43 43c-14.667 0 -27 5 -37 15
s-15 22.333 -15 37zM209.998 799.999c0 14.667 4.99805 26.999 14.998 36.999s22.333 15 37 15c30.667 0 48.334 -17.333 53.001 -52c1.33301 -8 1.33301 -17.667 0 -29c-3.33301 -23.333 -13.666 -43.666 -30.999 -60.999s-39 -29.333 -65 -36v31
c24 8.66699 38.333 23 43 43c-14.667 0 -27 5 -37 15s-15 22.333 -15 37z" />
    <glyph glyph-name="dagger" unicode="&#x2020;" horiz-adv-x="447" 
d="M177 -1v366h-126v89h126v136h89v-136h125v-89h-125v-366h-89z" />
    <glyph glyph-name="daggerdbl" unicode="&#x2021;" horiz-adv-x="447" 
d="M266 590v-136h125v-89h-125v-141h125v-89h-125v-136h-89v136h-126v89h126v141h-126v89h126v136h89z" />
    <glyph glyph-name="bullet" unicode="&#x2022;" horiz-adv-x="234" 
d="M30 411c0 22 8 41 24 57s35.333 24 58 24c22 0 41 -8 57 -24s24 -35 24 -57c0 -22.667 -8 -42 -24 -58s-35 -24 -57 -24c-22.667 0 -42 8 -58 24s-24 35.333 -24 58z" />
    <glyph glyph-name="ellipsis" unicode="&#x2026;" horiz-adv-x="585" 
d="M42 40c0 14.667 5 27 15 37s22.333 15 37 15s27 -5 37 -15s15 -22.333 15 -37s-5 -27 -15 -37s-22.333 -15 -37 -15s-27 5 -37 15s-15 22.333 -15 37zM242 40c0 14.667 5 27 15 37s22.333 15 37 15s27 -5 37 -15s15 -22.333 15 -37s-5 -27 -15 -37s-22.333 -15 -37 -15
s-27 5 -37 15s-15 22.333 -15 37zM442 40c0 14.667 5 27 15 37s22.333 15 37 15s27 -5 37 -15s15 -22.333 15 -37s-5 -27 -15 -37s-22.333 -15 -37 -15s-27 5 -37 15s-15 22.333 -15 37z" />
    <glyph glyph-name="guilsinglleft" unicode="&#x2039;" horiz-adv-x="154" 
d="M69 411l67 -56v-63l-113 94v49l113 96v-64z" />
    <glyph glyph-name="guilsinglright" unicode="&#x203a;" horiz-adv-x="154" 
d="M90 413l-67 56v63l113 -94v-49l-113 -96v64z" />
    <glyph glyph-name="euro" unicode="&#x20ac;" horiz-adv-x="470" 
d="M14 373l32 -0.00292969v31v43h-32v89h36c6 85.333 21.333 148 46 188c33.333 54 88 81 164 81c54 0 95.667 -19.667 125 -59c22 -30 35 -68.667 39 -116h-102c-6 50.667 -28.333 76 -67 76c-58 0 -91.333 -56.667 -100 -170h159v-89h-163c-1.33301 -24 -2 -36.333 -2 -37
c0 -15.333 0.333008 -27.666 1 -36.999h164v-89h-159c10.667 -124.667 45.667 -187 105 -187c19.333 0 35.333 10.667 48 32c10 18 15.667 37.667 17 59h103c-4 -53.333 -19.333 -97.666 -46 -132.999c-30 -40.667 -70.333 -61 -121 -61c-80 0 -136 31 -168 93
c-19.333 38.667 -33.333 104.334 -42 197.001h-37v89z" />
    <glyph glyph-name="trademark" unicode="&#x2122;" horiz-adv-x="458" 
d="M146 401h-53v353h-61v47h169v-47h-55v-353zM370 642l-46 -147l-47 147v-242l-52 1v400h53l45 -134l45 134h54v-400h-52v241z" />
    <glyph glyph-name="radical" unicode="&#x221a;" horiz-adv-x="549" 
d="M117 0c-10 212 -38.666 370.667 -85.999 476h74c16.667 -30 32.167 -68.333 46.5 -115s23.166 -86.334 26.499 -119.001c16 94.667 49.833 194.334 101.5 299.001s108.834 191 171.501 259h75c-170.667 -230 -271.334 -496.667 -302.001 -800h-107z" />
    <glyph glyph-name="apple" unicode="&#xf000;" horiz-adv-x="726" 
d="M270 577l-196 -287l197 -289h-215v576h214zM310 290l196 287h127l1 -576h-127z" />
    <glyph glyph-name="NULL" horiz-adv-x="0" 
 />
    <glyph glyph-name="nonmarkingreturn" horiz-adv-x="234" 
 />
    </font>
</defs>
</svg>
